<svg width="16" height="16" viewBox="0 0 16 16" fill="none" xmlns="http://www.w3.org/2000/svg">
<path d="M1 8.92708H12.86L9.23 13.7923C9.14595 13.9052 9.08265 14.0354 9.0437 14.1755C9.00474 14.3156 8.99091 14.463 9.00298 14.6091C9.02736 14.9041 9.15578 15.1763 9.36 15.3657C9.56422 15.5551 9.8275 15.6463 10.0919 15.6191C10.3563 15.5919 10.6003 15.4485 10.77 15.2207L15.77 8.52536C15.8036 8.4721 15.8337 8.41616 15.86 8.35798C15.86 8.30218 15.91 8.2687 15.93 8.21291C15.9753 8.08496 15.9991 7.94877 16 7.81119C15.9991 7.67362 15.9753 7.53742 15.93 7.40947C15.93 7.35368 15.88 7.3202 15.86 7.26441C15.8337 7.20623 15.8036 7.15028 15.77 7.09703L10.77 0.401721C10.676 0.275757 10.5582 0.174456 10.4252 0.105025C10.2921 0.0355934 10.1469 -0.000264098 10 2.13174e-06C9.76635 -0.000507284 9.53991 0.0902982 9.36 0.256656C9.25874 0.350333 9.17504 0.465381 9.11369 0.595211C9.05234 0.725041 9.01454 0.867102 9.00246 1.01326C8.99039 1.15941 9.00427 1.30679 9.04331 1.44695C9.08236 1.58711 9.1458 1.71729 9.23 1.83005L12.86 6.69531H1C0.734784 6.69531 0.48043 6.81287 0.292893 7.02214C0.105357 7.23141 0 7.51524 0 7.81119C0 8.10714 0.105357 8.39097 0.292893 8.60024C0.48043 8.80951 0.734784 8.92708 1 8.92708Z" fill="white"/>
</svg>
