<svg width="289" height="24" viewBox="0 0 289 24" fill="none" xmlns="http://www.w3.org/2000/svg">
<path fill-rule="evenodd" clip-rule="evenodd" d="M287.958 8.56857H287.91L287.958 8.14253V7.90585V7.7165V7.43247L287.815 7.57449L287.673 7.19579L287.247 6.76975L287.057 6.24904L286.868 6.15437L286.821 6.24904L286.678 6.05969L286.584 5.68099L286.441 5.49165L286.347 5.20762L286.11 5.06561L285.968 4.87626L285.683 4.82892L285.447 4.59224L285.352 4.30821L285.304 3.7875L285.162 3.69283L285.068 3.31413V2.98277L284.973 2.74608L284.736 2.5094H284.641L284.499 2.60407L284.31 2.22537V1.89401L284.215 1.65732V1.46798L284.073 1.42064V1.04194L283.883 0.947266L283.788 1.04194L283.741 1.18395V1.46798L283.599 1.65732V1.84667L283.551 2.1307L283.457 2.46206V2.74608L283.504 2.93543L283.409 3.12478V3.55082L283.315 3.7875L283.267 3.97685L283.078 4.11886L282.746 3.97685L282.509 3.74017L282.272 3.69283L281.988 3.50348L281.799 3.4088L281.325 3.07744L281.088 2.98277L281.277 2.36738V2.17804L281.467 2.1307L281.656 1.752L281.514 1.56265L281.42 1.60999L281.23 1.42064L281.041 1.70466L280.898 1.60999L280.614 1.56265L280.282 1.46798L280.14 1.42064L279.951 1.27863L279.572 1.23129L279.809 1.3733L279.903 1.56265L279.809 1.65732L279.524 1.79934L279.24 1.752L279.051 1.89401L278.956 2.03602L278.861 2.17804L278.956 2.41472L278.719 2.5094L278.672 2.60407L278.53 2.79342L278.672 2.93543V3.12478L278.53 3.07744L278.293 2.98277L278.15 3.07744L278.103 3.21946L278.056 3.26679V2.88809L277.914 2.84076L277.771 2.65141L277.629 2.55673L277.44 2.60407L277.345 2.79342L277.156 2.93543L277.013 2.84076L276.824 2.98277L276.729 3.31413L276.587 3.4088L276.729 3.64549L276.682 3.7875L276.398 3.88218L276.255 3.83484L276.208 3.97685L276.35 4.21354L276.303 4.45022L276.113 4.11886L276.019 3.92951L275.876 4.07153L275.734 4.26088L275.782 4.49756L275.876 4.73425L275.592 5.06561L275.497 5.39697L275.308 5.53898L275.118 5.58632L274.881 5.72833L274.645 5.77567L274.502 6.05969L274.266 5.96502L274.029 6.24904L273.792 6.2017L273.555 6.39105L273.413 6.62774H273.271L273.129 6.91176L273.034 7.10111L272.844 6.9591V7.19579L272.797 7.3378L272.892 7.62182L272.844 7.90585L272.892 8.0952L273.081 8.37922L273.271 8.47389L273.223 8.80525L272.986 8.66324L273.034 8.85259L272.892 8.80525L273.081 9.13662L273.223 9.32596L273.413 9.70466L273.602 9.94135L273.887 10.0834V10.4621L274.029 10.7461L274.408 11.2668V11.5508L274.455 11.8822L274.313 12.0242L274.408 12.2609L274.597 12.3556L274.881 12.4976L275.545 12.3556L275.924 12.1189L276.066 11.9769L276.35 11.8348L276.634 11.7875L276.777 11.9295L277.013 11.7875H277.156L277.392 11.6455L277.44 11.3615L277.487 11.2668L277.961 10.9354L278.293 10.9828L278.909 10.6987L279.051 10.5567L279.382 10.4621L279.714 10.5094L279.856 10.4621L280.046 10.5567L280.235 10.6987H280.472L280.709 10.7461L280.898 11.0774L281.041 11.1248L281.088 11.2668L281.325 11.6928L281.609 11.8348L281.656 11.6928L281.751 11.5035L281.893 11.3615L282.13 11.2195L282.083 11.0301L282.13 10.9354L282.32 10.8408L282.272 11.1721L282.083 11.6928L281.988 11.8822H282.32L282.367 11.5035L282.462 11.6455V11.9295L282.367 12.1662H282.509L282.699 12.0715L282.888 12.4029L282.983 12.6869L283.03 12.9236L283.504 13.3496H283.883L284.12 13.4916L284.31 13.6337L284.641 13.397L284.689 13.255L284.736 13.4443H284.831L285.115 13.681L285.399 13.539L285.683 13.3023L285.873 13.255H286.157L286.441 13.1129L286.536 12.8763V12.7816L286.584 12.4502L286.773 12.0715L286.868 11.7402L286.963 11.5982L287.057 11.3615L287.294 11.0301L287.436 10.9354L287.579 10.6987L287.721 10.2727V9.89401L287.863 9.752L287.91 9.56265L288.005 9.42064L287.958 8.56857ZM285.636 14.4384L285.399 14.5331L285.21 14.6277L284.973 14.4857L284.783 14.3911H284.546V14.6277L284.736 14.9118V15.2905L284.878 15.5745L285.02 15.7638H285.257L285.304 15.5745L285.447 15.4798H285.589V15.2431L285.683 15.0538V14.5804L285.636 14.4384Z" fill="#F15B46"/>
<path fill-rule="evenodd" clip-rule="evenodd" d="M1.89715 0.994857L1.28125 8.04811H2.18141C2.60781 6.3913 2.60781 3.45639 5.73469 3.45639H7.96141V21.4919L4.64502 21.9179V23.0067H16.7262V21.9179L15.826 21.8706C13.5045 21.4919 13.4098 21.6812 13.4098 19.8824V3.50373H15.6839C18.8108 3.50373 18.8581 6.43864 19.2845 8.09545H20.1373L19.5214 0.994857H1.89715ZM32.9765 2.17829L33.3555 2.22563C35.677 2.50965 35.9139 2.41497 35.9139 4.21379V10.557H28.8073V2.60432L31.7447 2.17829V0.994857H20.469V2.17829L21.1796 2.22563C23.5011 2.46231 23.8801 2.41497 23.8801 4.21379V21.5392L20.469 21.9653V23.054H31.7447V21.9653L31.3657 21.9179C29.0442 21.6339 28.8073 21.7286 28.8073 19.9298V12.6398H35.8665V21.5392L32.9291 21.9653V23.054H44.1575V21.9653L43.7311 21.9179C41.4096 21.6812 41.2675 21.7286 41.2675 19.9298V2.60432L44.2049 2.17829V0.994857H32.9765V2.17829ZM56.8545 20.8292C53.2065 20.8292 53.396 20.4978 53.396 17.8943V12.6872H57.2336C58.3706 12.6872 59.7445 12.6872 59.6972 15.6221H60.5499L61.1185 8.04811H60.2183C60.0288 9.27888 59.7919 10.557 57.6599 10.557H53.396V3.0777H58.5601C61.2606 3.0777 61.687 4.7345 61.7344 6.3913H62.5872L63.0609 0.994857H45.0576V2.17829L45.484 2.22563C47.8055 2.46231 47.9476 2.41497 47.9476 4.21379V21.5392L45.0103 21.9653V23.054H62.9188L63.4873 16.8055H62.6345C61.9239 19.7404 60.9763 20.8292 56.8545 20.8292ZM89.3552 20.3085L82.8645 0.994857H78.2216L71.1624 21.5392L68.4145 21.9653V23.054H76.2791V21.9653C74.1945 21.7286 73.3891 21.4919 73.9103 19.8824C74.005 19.5984 74.4788 18.0363 75.0473 16.8055H82.5803L84.2385 21.5866L80.9221 21.9653V23.054C80.9221 23.054 86.9863 23.054 87.697 23.054H92.5768V21.9653L91.5345 21.8706C90.587 21.7286 89.829 21.7286 89.3552 20.3085ZM75.8527 14.2966C77.274 10.1309 78.9322 5.39722 78.9322 5.39722L81.8696 14.2966H75.8527ZM111.67 0.994857H103.331V2.17829L103.758 2.22563C106.079 2.46231 106.221 2.41497 106.221 4.21379V14.4386C106.221 17.9889 106.032 20.9712 101.389 20.9712C97.4567 20.9712 96.6039 18.4623 96.6039 14.77V2.60432L99.5413 2.17829V0.994857H88.3129V2.17829L88.9762 2.22563C91.2977 2.46231 91.6767 2.41497 91.6767 4.21379V15.054C91.6767 20.1191 93.477 23.3854 100.678 23.3854C108.306 23.3854 108.306 17.9416 108.306 15.054V2.60432L111.622 2.17829V0.994857H111.67ZM111.622 16.3795C111.622 16.3321 111.622 16.3321 111.622 16.3795V16.3795ZM122.993 10.0836C118.871 8.47414 115.223 8.00077 115.223 5.63391C115.223 3.36172 117.639 2.98302 119.724 2.98302C122.946 2.98302 124.651 3.92977 124.604 8.09545H125.504C125.504 8.09545 126.072 1.37356 126.072 1.51557C124.414 1.08953 122.187 0.521484 119.961 0.521484C116.171 0.521484 111.101 1.70492 111.101 7.1487C111.101 10.273 112.191 12.3085 114.939 13.3972C116.644 14.0599 118.113 14.628 118.824 14.8647C121.335 15.6694 122.567 16.6162 122.567 18.2256C122.567 19.6457 121.714 21.2552 118.587 21.2552C116.455 21.2552 115.034 20.5925 114.418 20.3558C112.712 19.6457 112.523 17.6102 112.523 16.5215L111.622 16.4268C111.575 16.8055 111.149 21.7286 111.149 21.8706C112.38 22.7227 115.27 23.6221 118.445 23.6221C121.524 23.6221 126.736 21.9653 126.736 16.4268C126.736 13.1132 125.22 10.9357 122.993 10.0836ZM127.588 0.994857L126.973 8.04811H127.873C128.299 6.3913 128.299 3.45639 131.426 3.45639H133.747V21.4919L130.431 21.9179V23.0067H142.512V21.9179L141.612 21.8706C139.291 21.4919 139.196 21.6812 139.196 19.8824V3.50373H141.423C144.549 3.50373 144.597 6.43864 145.023 8.09545H145.876L145.26 1.04219H127.588V0.994857ZM204.008 20.6872C200.36 20.6872 200.36 20.4505 200.36 17.8469V2.60432L203.676 2.17829V0.994857H192.448V2.17829L192.874 2.22563C195.196 2.46231 195.338 2.41497 195.338 4.21379V21.5392L192.827 21.9653V23.054H209.172L209.835 15.5747H208.982C208.272 18.8883 207.229 20.6872 204.008 20.6872ZM166.864 20.6398C165.632 14.3913 163.879 13.2079 160.752 12.6398C163.074 12.3558 166.201 11.8351 166.201 6.86468C166.201 2.46231 163.027 0.994857 157.341 0.994857H146.208V2.17829L146.634 2.22563C148.956 2.46231 149.098 2.41497 149.098 4.21379V21.5392L146.16 21.9653V23.054H157.389V21.9653L156.962 21.9179C154.641 21.6812 154.499 21.7286 154.499 19.9298V13.9179H155.92C157.957 13.9179 159.142 14.0126 159.757 15.1014C160.468 16.4268 160.895 17.8943 161.274 19.8351C161.463 20.6398 161.795 22.2493 161.937 23.054H165.111C166.153 23.054 168.617 23.054 168.617 23.054V21.9653C167.48 21.7286 167.148 21.9179 166.864 20.6398ZM157.626 11.4091H154.593V3.0777H157.626C158.999 3.0777 161.51 3.59841 161.51 7.10136C161.51 9.84692 160.184 11.4091 157.626 11.4091ZM189.558 20.3085L183.02 0.994857H178.377L171.128 21.5392L169.138 21.9653V23.054H175.392V21.9653C174.16 21.9653 172.976 21.7759 173.449 20.3558C173.544 20.0718 174.16 18.4623 174.823 16.8055H182.83L184.441 21.5866L181.646 21.9653V23.054C181.646 23.054 192.069 23.054 192.495 23.054V21.9653L191.69 21.9179C191.074 21.7759 189.984 21.7286 189.558 20.3085ZM175.676 14.2966C177.287 10.1309 179.087 4.87651 179.087 4.87651L182.072 14.2966H175.676ZM209.93 2.17829L210.356 2.22563C212.678 2.46231 212.82 2.41497 212.82 4.21379V21.5392L209.882 21.9653V23.054H221.111V21.9653L220.684 21.9179C218.363 21.6812 218.221 21.7286 218.221 19.9298V2.60432L221.158 2.17829V0.994857H209.93V2.17829ZM242.762 20.3085L236.271 0.994857H231.628L224.475 21.5392L221.632 21.9653V23.054H229.97V21.9653C227.459 21.7286 226.986 21.4919 227.459 19.8824C227.554 19.5984 227.886 18.0363 228.454 16.8055H235.94L237.503 21.5866L234.092 21.9653V23.054C234.092 23.054 240.298 23.054 241.009 23.054H245.747V21.9653L244.752 21.8706C243.899 21.7286 243.236 21.7286 242.762 20.3085ZM229.26 14.2966C230.681 10.1309 232.339 5.39722 232.339 5.39722L235.277 14.2966H229.26ZM260.765 0.994857V2.17829L261.429 2.22563C263.75 2.46231 264.129 2.41497 264.129 4.21379V15.5747L254.322 0.994857H245.794V2.17829L246.742 2.22563C249.063 2.60432 249.063 2.41497 249.063 4.21379V21.5392L246.647 21.9653V23.054H254.559V21.9653L254.133 21.9179C251.811 21.6812 251.669 21.7286 251.669 19.9298V6.10728L262.803 23.054H266.403V2.60432L269.151 2.17829V0.994857H260.765Z" fill="#484848"/>
</svg>
