<svg width="16" height="16" viewBox="0 0 16 16" fill="none" xmlns="http://www.w3.org/2000/svg">
<path d="M8 0C3.58862 0 0 3.58862 0 8C0 12.4114 3.58862 16 8 16C12.4114 16 16 12.4114 16 8C16 3.58862 12.4114 0 8 0Z" fill="#2196F3"/>
<path d="M12.0562 6.3042L7.72278 10.6375C7.59277 10.7675 7.42212 10.8329 7.25146 10.8329C7.08081 10.8329 6.91016 10.7675 6.78015 10.6375L4.61353 8.47083C4.35278 8.21021 4.35278 7.78882 4.61353 7.5282C4.87415 7.26746 5.29541 7.26746 5.55615 7.5282L7.25146 9.22351L11.1135 5.36157C11.3741 5.10083 11.7954 5.10083 12.0562 5.36157C12.3168 5.62219 12.3168 6.04346 12.0562 6.3042Z" fill="#FAFAFA"/>
</svg>
