<svg width="307" height="315" viewBox="0 0 307 315" fill="none" xmlns="http://www.w3.org/2000/svg">
<circle cx="2.14154" cy="2.30951" r="1.63373" fill="#9AC1D0"/>
<circle cx="32.3642" cy="2.30951" r="1.63373" fill="#9AC1D0"/>
<circle cx="62.5908" cy="2.30951" r="1.63373" fill="#9AC1D0"/>
<circle cx="92.8134" cy="2.30951" r="1.63373" fill="#9AC1D0"/>
<circle cx="123.04" cy="2.30951" r="1.63373" fill="#9AC1D0"/>
<circle cx="153.263" cy="2.30951" r="1.63373" fill="#9AC1D0"/>
<circle cx="2.14154" cy="2.30951" r="1.63373" fill="#9AC1D0"/>
<circle cx="32.3642" cy="2.30951" r="1.63373" fill="#9AC1D0"/>
<circle cx="62.5908" cy="2.30951" r="1.63373" fill="#9AC1D0"/>
<circle cx="92.8134" cy="2.30951" r="1.63373" fill="#9AC1D0"/>
<circle cx="123.04" cy="2.30951" r="1.63373" fill="#9AC1D0"/>
<circle cx="153.263" cy="2.30951" r="1.63373" fill="#9AC1D0"/>
<circle cx="2.14154" cy="33.3505" r="1.63373" fill="#9AC1D0"/>
<circle cx="32.3642" cy="33.3505" r="1.63373" fill="#9AC1D0"/>
<circle cx="62.5869" cy="33.3505" r="1.63373" fill="#9AC1D0"/>
<circle cx="92.8134" cy="33.3505" r="1.63373" fill="#9AC1D0"/>
<circle cx="123.036" cy="33.3505" r="1.63373" fill="#9AC1D0"/>
<circle cx="153.263" cy="33.3505" r="1.63373" fill="#9AC1D0"/>
<circle cx="2.14154" cy="64.3915" r="1.63373" fill="#9AC1D0"/>
<circle cx="32.3642" cy="64.3915" r="1.63373" fill="#9AC1D0"/>
<circle cx="62.5869" cy="64.3915" r="1.63373" fill="#9AC1D0"/>
<circle cx="92.8134" cy="64.3915" r="1.63373" fill="#9AC1D0"/>
<circle cx="123.036" cy="64.3915" r="1.63373" fill="#9AC1D0"/>
<circle cx="153.263" cy="64.3915" r="1.63373" fill="#9AC1D0"/>
<circle cx="2.14154" cy="95.4326" r="1.63373" fill="#9AC1D0"/>
<circle cx="32.3642" cy="95.4326" r="1.63373" fill="#9AC1D0"/>
<circle cx="62.5869" cy="95.4326" r="1.63373" fill="#9AC1D0"/>
<circle cx="92.8134" cy="95.4326" r="1.63373" fill="#9AC1D0"/>
<circle cx="123.036" cy="95.4326" r="1.63373" fill="#9AC1D0"/>
<circle cx="153.263" cy="95.4326" r="1.63373" fill="#9AC1D0"/>
<circle cx="2.14154" cy="126.474" r="1.63373" fill="#9AC1D0"/>
<circle cx="32.3642" cy="126.474" r="1.63373" fill="#9AC1D0"/>
<circle cx="62.5869" cy="126.474" r="1.63373" fill="#9AC1D0"/>
<circle cx="92.8134" cy="126.474" r="1.63373" fill="#9AC1D0"/>
<circle cx="123.036" cy="126.474" r="1.63373" fill="#9AC1D0"/>
<circle cx="153.263" cy="126.474" r="1.63373" fill="#9AC1D0"/>
<circle cx="2.14154" cy="157.515" r="1.63373" fill="#9AC1D0"/>
<circle cx="32.3642" cy="157.513" r="1.63373" fill="#9AC1D0"/>
<circle cx="62.5869" cy="157.513" r="1.63373" fill="#9AC1D0"/>
<circle cx="92.8134" cy="157.513" r="1.63373" fill="#9AC1D0"/>
<circle cx="123.036" cy="157.513" r="1.63373" fill="#9AC1D0"/>
<circle cx="153.263" cy="157.513" r="1.63373" fill="#9AC1D0"/>
<circle cx="2.14154" cy="157.515" r="1.63373" fill="#9AC1D0"/>
<circle cx="32.3642" cy="157.513" r="1.63373" fill="#9AC1D0"/>
<circle cx="62.5869" cy="157.513" r="1.63373" fill="#9AC1D0"/>
<circle cx="92.8134" cy="157.513" r="1.63373" fill="#9AC1D0"/>
<circle cx="123.036" cy="157.513" r="1.63373" fill="#9AC1D0"/>
<circle cx="153.263" cy="157.513" r="1.63373" fill="#9AC1D0"/>
<circle cx="2.14154" cy="157.515" r="1.63373" fill="#9AC1D0"/>
<circle cx="32.3642" cy="157.513" r="1.63373" fill="#9AC1D0"/>
<circle cx="62.5869" cy="157.513" r="1.63373" fill="#9AC1D0"/>
<circle cx="92.8134" cy="157.513" r="1.63373" fill="#9AC1D0"/>
<circle cx="123.036" cy="157.513" r="1.63373" fill="#9AC1D0"/>
<circle cx="153.263" cy="157.513" r="1.63373" fill="#9AC1D0"/>
<circle cx="2.14154" cy="188.556" r="1.63373" fill="#9AC1D0"/>
<circle cx="32.3642" cy="188.554" r="1.63373" fill="#9AC1D0"/>
<circle cx="62.5869" cy="188.554" r="1.63373" fill="#9AC1D0"/>
<circle cx="92.8134" cy="188.554" r="1.63373" fill="#9AC1D0"/>
<circle cx="123.036" cy="188.554" r="1.63373" fill="#9AC1D0"/>
<circle cx="153.263" cy="188.554" r="1.63373" fill="#9AC1D0"/>
<circle cx="2.14154" cy="219.595" r="1.63373" fill="#9AC1D0"/>
<circle cx="32.3642" cy="219.595" r="1.63373" fill="#9AC1D0"/>
<circle cx="62.5869" cy="219.595" r="1.63373" fill="#9AC1D0"/>
<circle cx="92.8134" cy="219.595" r="1.63373" fill="#9AC1D0"/>
<circle cx="123.036" cy="219.595" r="1.63373" fill="#9AC1D0"/>
<circle cx="153.263" cy="219.595" r="1.63373" fill="#9AC1D0"/>
<circle cx="2.14154" cy="250.636" r="1.63373" fill="#9AC1D0"/>
<circle cx="32.3642" cy="250.636" r="1.63373" fill="#9AC1D0"/>
<circle cx="62.5869" cy="250.636" r="1.63373" fill="#9AC1D0"/>
<circle cx="92.8134" cy="250.636" r="1.63373" fill="#9AC1D0"/>
<circle cx="123.036" cy="250.636" r="1.63373" fill="#9AC1D0"/>
<circle cx="153.263" cy="250.636" r="1.63373" fill="#9AC1D0"/>
<circle cx="2.14154" cy="281.675" r="1.63373" fill="#9AC1D0"/>
<circle cx="32.3642" cy="281.677" r="1.63373" fill="#9AC1D0"/>
<circle cx="62.5869" cy="281.677" r="1.63373" fill="#9AC1D0"/>
<circle cx="92.8134" cy="281.677" r="1.63373" fill="#9AC1D0"/>
<circle cx="123.036" cy="281.677" r="1.63373" fill="#9AC1D0"/>
<circle cx="153.263" cy="281.677" r="1.63373" fill="#9AC1D0"/>
<circle cx="2.14154" cy="312.716" r="1.63373" fill="#9AC1D0"/>
<circle cx="32.3642" cy="312.716" r="1.63373" fill="#9AC1D0"/>
<circle cx="62.5869" cy="312.716" r="1.63373" fill="#9AC1D0"/>
<circle cx="92.8134" cy="312.716" r="1.63373" fill="#9AC1D0"/>
<circle cx="123.036" cy="312.716" r="1.63373" fill="#9AC1D0"/>
<circle cx="153.263" cy="312.716" r="1.63373" fill="#9AC1D0"/>
<circle cx="153.263" cy="2.30951" r="1.63373" fill="#9AC1D0"/>
<circle cx="183.485" cy="2.30951" r="1.63373" fill="#9AC1D0"/>
<circle cx="213.712" cy="2.30951" r="1.63373" fill="#9AC1D0"/>
<circle cx="243.935" cy="2.30951" r="1.63373" fill="#9AC1D0"/>
<circle cx="274.157" cy="2.30951" r="1.63373" fill="#9AC1D0"/>
<circle cx="304.384" cy="2.30951" r="1.63373" fill="#9AC1D0"/>
<circle cx="153.263" cy="2.30951" r="1.63373" fill="#9AC1D0"/>
<circle cx="183.485" cy="2.30951" r="1.63373" fill="#9AC1D0"/>
<circle cx="213.712" cy="2.30951" r="1.63373" fill="#9AC1D0"/>
<circle cx="243.935" cy="2.30951" r="1.63373" fill="#9AC1D0"/>
<circle cx="274.157" cy="2.30951" r="1.63373" fill="#9AC1D0"/>
<circle cx="304.384" cy="2.30951" r="1.63373" fill="#9AC1D0"/>
<circle cx="153.263" cy="33.3505" r="1.63373" fill="#9AC1D0"/>
<circle cx="183.485" cy="33.3505" r="1.63373" fill="#9AC1D0"/>
<circle cx="213.712" cy="33.3505" r="1.63373" fill="#9AC1D0"/>
<circle cx="243.935" cy="33.3505" r="1.63373" fill="#9AC1D0"/>
<circle cx="274.157" cy="33.3505" r="1.63373" fill="#9AC1D0"/>
<circle cx="304.384" cy="33.3505" r="1.63373" fill="#9AC1D0"/>
<circle cx="153.263" cy="64.3915" r="1.63373" fill="#9AC1D0"/>
<circle cx="183.485" cy="64.3915" r="1.63373" fill="#9AC1D0"/>
<circle cx="213.712" cy="64.3915" r="1.63373" fill="#9AC1D0"/>
<circle cx="243.935" cy="64.3915" r="1.63373" fill="#9AC1D0"/>
<circle cx="274.157" cy="64.3915" r="1.63373" fill="#9AC1D0"/>
<circle cx="304.384" cy="64.3915" r="1.63373" fill="#9AC1D0"/>
<circle cx="153.263" cy="95.4326" r="1.63373" fill="#9AC1D0"/>
<circle cx="183.485" cy="95.4326" r="1.63373" fill="#9AC1D0"/>
<circle cx="213.712" cy="95.4326" r="1.63373" fill="#9AC1D0"/>
<circle cx="243.935" cy="95.4326" r="1.63373" fill="#9AC1D0"/>
<circle cx="274.157" cy="95.4326" r="1.63373" fill="#9AC1D0"/>
<circle cx="304.384" cy="95.4326" r="1.63373" fill="#9AC1D0"/>
<circle cx="153.263" cy="126.474" r="1.63373" fill="#9AC1D0"/>
<circle cx="183.485" cy="126.474" r="1.63373" fill="#9AC1D0"/>
<circle cx="213.712" cy="126.474" r="1.63373" fill="#9AC1D0"/>
<circle cx="243.935" cy="126.474" r="1.63373" fill="#9AC1D0"/>
<circle cx="274.157" cy="126.474" r="1.63373" fill="#9AC1D0"/>
<circle cx="304.384" cy="126.474" r="1.63373" fill="#9AC1D0"/>
<circle cx="153.263" cy="157.515" r="1.63373" fill="#9AC1D0"/>
<circle cx="183.485" cy="157.513" r="1.63373" fill="#9AC1D0"/>
<circle cx="213.712" cy="157.513" r="1.63373" fill="#9AC1D0"/>
<circle cx="243.935" cy="157.513" r="1.63373" fill="#9AC1D0"/>
<circle cx="274.157" cy="157.513" r="1.63373" fill="#9AC1D0"/>
<circle cx="304.384" cy="157.513" r="1.63373" fill="#9AC1D0"/>
<circle cx="153.263" cy="157.515" r="1.63373" fill="#9AC1D0"/>
<circle cx="183.485" cy="157.513" r="1.63373" fill="#9AC1D0"/>
<circle cx="213.712" cy="157.513" r="1.63373" fill="#9AC1D0"/>
<circle cx="243.935" cy="157.513" r="1.63373" fill="#9AC1D0"/>
<circle cx="274.157" cy="157.513" r="1.63373" fill="#9AC1D0"/>
<circle cx="304.384" cy="157.513" r="1.63373" fill="#9AC1D0"/>
<circle cx="153.263" cy="157.515" r="1.63373" fill="#9AC1D0"/>
<circle cx="183.485" cy="157.513" r="1.63373" fill="#9AC1D0"/>
<circle cx="213.712" cy="157.513" r="1.63373" fill="#9AC1D0"/>
<circle cx="243.935" cy="157.513" r="1.63373" fill="#9AC1D0"/>
<circle cx="274.157" cy="157.513" r="1.63373" fill="#9AC1D0"/>
<circle cx="304.384" cy="157.513" r="1.63373" fill="#9AC1D0"/>
<circle cx="153.263" cy="188.556" r="1.63373" fill="#9AC1D0"/>
<circle cx="183.485" cy="188.554" r="1.63373" fill="#9AC1D0"/>
<circle cx="213.712" cy="188.554" r="1.63373" fill="#9AC1D0"/>
<circle cx="243.935" cy="188.554" r="1.63373" fill="#9AC1D0"/>
<circle cx="274.157" cy="188.554" r="1.63373" fill="#9AC1D0"/>
<circle cx="304.384" cy="188.554" r="1.63373" fill="#9AC1D0"/>
<circle cx="153.263" cy="219.595" r="1.63373" fill="#9AC1D0"/>
<circle cx="183.485" cy="219.595" r="1.63373" fill="#9AC1D0"/>
<circle cx="213.712" cy="219.595" r="1.63373" fill="#9AC1D0"/>
<circle cx="243.935" cy="219.595" r="1.63373" fill="#9AC1D0"/>
<circle cx="274.157" cy="219.595" r="1.63373" fill="#9AC1D0"/>
<circle cx="304.384" cy="219.595" r="1.63373" fill="#9AC1D0"/>
<circle cx="153.263" cy="250.636" r="1.63373" fill="#9AC1D0"/>
<circle cx="183.485" cy="250.636" r="1.63373" fill="#9AC1D0"/>
<circle cx="213.712" cy="250.636" r="1.63373" fill="#9AC1D0"/>
<circle cx="243.935" cy="250.636" r="1.63373" fill="#9AC1D0"/>
<circle cx="274.157" cy="250.636" r="1.63373" fill="#9AC1D0"/>
<circle cx="304.384" cy="250.636" r="1.63373" fill="#9AC1D0"/>
<circle cx="153.263" cy="281.675" r="1.63373" fill="#9AC1D0"/>
<circle cx="183.485" cy="281.677" r="1.63373" fill="#9AC1D0"/>
<circle cx="213.712" cy="281.677" r="1.63373" fill="#9AC1D0"/>
<circle cx="243.935" cy="281.677" r="1.63373" fill="#9AC1D0"/>
<circle cx="274.157" cy="281.677" r="1.63373" fill="#9AC1D0"/>
<circle cx="304.384" cy="281.677" r="1.63373" fill="#9AC1D0"/>
<circle cx="153.263" cy="312.716" r="1.63373" fill="#9AC1D0"/>
<circle cx="183.485" cy="312.716" r="1.63373" fill="#9AC1D0"/>
<circle cx="213.712" cy="312.716" r="1.63373" fill="#9AC1D0"/>
<circle cx="243.935" cy="312.716" r="1.63373" fill="#9AC1D0"/>
<circle cx="274.157" cy="312.716" r="1.63373" fill="#9AC1D0"/>
<circle cx="304.384" cy="312.716" r="1.63373" fill="#9AC1D0"/>
</svg>
