<svg width="104" height="26" viewBox="0 0 104 26" fill="none" xmlns="http://www.w3.org/2000/svg">
<path d="M58.9155 8.43711C58.9155 5.4297 58.9675 2.6297 59.1235 0.0371094L51.1675 1.54081V2.26674L51.9475 2.37044C52.5195 2.42229 52.8835 2.6297 53.0915 2.94081C53.2995 3.30378 53.4555 3.82229 53.5595 4.60007C53.6635 6.10378 53.7675 9.526 53.7155 14.9186C53.7155 20.2593 53.6635 23.6297 53.5595 24.926C56.4195 25.5482 58.6555 25.8075 60.3195 25.8075C63.4395 25.8075 65.8835 24.926 67.6515 23.1112C69.4195 21.3482 70.3555 18.8593 70.3555 15.8001C70.3555 13.363 69.6795 11.3408 68.3275 9.73341C66.9755 8.126 65.2595 7.34822 63.2315 7.34822C61.8795 7.34822 60.4755 7.71118 58.9155 8.43711ZM59.0715 24.4075C58.9675 22.7482 58.8635 17.7704 58.8635 9.6297C59.3315 9.47415 59.9555 9.37044 60.7355 9.37044C61.9835 9.37044 62.9715 9.99267 63.6995 11.289C64.4275 12.5853 64.7915 14.1408 64.7915 16.1112C64.7915 18.5482 64.3755 20.5186 63.5435 22.1779C62.7115 23.7853 61.6715 24.6149 60.3715 24.6149C59.9555 24.5112 59.5395 24.4593 59.0715 24.4075ZM21.3195 0.555628H0.519531V1.59267L1.61153 1.69637C2.44353 1.85192 3.01553 2.16304 3.37953 2.6297C3.74353 3.14822 3.95153 3.97785 4.00353 5.11859C4.41953 10.7186 4.41953 15.9556 4.00353 20.7779C3.89953 21.9186 3.69153 22.7482 3.37953 23.2667C3.01553 23.7853 2.44353 24.0964 1.61153 24.2001L0.519531 24.3556V25.3927H13.9355V24.3556L12.5315 24.2519C11.6995 24.1482 11.1275 23.7853 10.7635 23.3186C10.3995 22.8001 10.1915 21.9704 10.1395 20.8297C9.98353 18.7556 9.87953 16.3704 9.87953 13.726L12.6875 13.7779C14.1955 13.8297 15.2355 14.9704 15.7555 17.2519H16.7955V8.80007H15.7555C15.2355 11.0297 14.2475 12.1704 12.6875 12.2223L9.87953 12.2741C9.87953 7.60748 9.98353 4.28896 10.1395 2.26674H14.2475C17.1595 2.26674 19.1355 4.13341 20.2795 7.86674L21.5275 7.50378L21.3195 0.555628ZM18.8755 16.526C18.8755 19.2223 19.6555 21.4519 21.1635 23.2149C22.6715 24.9779 24.9075 25.8075 27.7155 25.8075C30.5235 25.8075 32.8115 24.926 34.4755 23.1112C36.1395 21.3482 36.9195 19.1186 36.9195 16.4223C36.9195 13.726 36.1395 11.4964 34.6315 9.73341C33.1235 7.97044 30.8875 7.14081 28.0795 7.14081C25.2715 7.14081 22.9835 8.02229 21.3195 9.83711C19.6555 11.6001 18.8755 13.8297 18.8755 16.526ZM30.4715 10.6149C31.0955 12.1186 31.3555 14.089 31.3555 16.4741C31.3555 21.9704 30.2115 24.6667 27.9755 24.6667C26.8315 24.6667 25.9475 23.889 25.3235 22.3334C24.6995 20.7779 24.4395 18.8075 24.4395 16.4741C24.4395 11.0297 25.5835 8.33341 27.8195 8.33341C28.9635 8.28155 29.8475 9.05933 30.4715 10.6149ZM74.4115 23.2149C76.1275 24.926 78.3115 25.8075 80.9115 25.8075C82.5235 25.8075 83.9275 25.4964 85.1755 24.8223C86.4235 24.2001 87.4115 23.4223 88.0875 22.489L87.5675 21.8667C86.4235 22.7482 85.1235 23.163 83.6155 23.163C81.5355 23.163 79.9235 22.489 78.8315 21.089C77.6875 19.689 77.1675 17.926 77.2715 15.6445H88.3995C88.3995 13.1556 87.7755 11.1334 86.4755 9.526C85.1755 7.97044 83.3555 7.19267 81.0155 7.19267C78.1035 7.19267 75.8675 8.126 74.2555 9.94081C72.6435 11.7556 71.8635 13.9853 71.8635 16.6297C71.8635 19.326 72.6955 21.5038 74.4115 23.2149ZM78.2595 10.2001C78.8315 8.95563 79.5595 8.33341 80.5475 8.33341C82.1075 8.33341 82.8875 10.3038 82.8875 14.2964L77.3755 14.4001C77.4275 12.8445 77.6875 11.4445 78.2595 10.2001ZM102.388 8.126C100.984 7.50378 99.2155 7.14081 97.0835 7.14081C94.8995 7.14081 93.1835 7.71118 91.8835 8.80007C90.5835 9.88896 89.9075 11.2371 89.9075 12.8445C89.9075 14.2445 90.3235 15.3334 91.1035 16.1112C91.8835 16.889 93.1315 17.563 94.7435 18.1334C96.1995 18.6519 97.2395 19.1704 97.7595 19.6371C98.2795 20.1556 98.5915 20.726 98.5915 21.5038C98.5915 22.2297 98.3315 22.9038 97.7595 23.4223C97.2395 23.9927 96.5115 24.2519 95.5755 24.2519C93.2875 24.2519 91.5715 22.5927 90.3755 19.2741L89.4915 19.5334L89.6995 24.7186C91.5715 25.4445 93.6515 25.8075 95.9395 25.8075C98.3315 25.8075 100.152 25.289 101.504 24.2001C102.856 23.163 103.532 21.6593 103.532 19.7927C103.532 18.5482 103.22 17.5112 102.544 16.7334C101.868 15.9556 100.776 15.2816 99.2155 14.6593C97.4995 14.0371 96.3035 13.4667 95.6795 12.9482C95.0555 12.4297 94.7435 11.8075 94.7435 11.0297C94.7435 10.2519 94.9515 9.6297 95.4195 9.11118C95.8875 8.59267 96.4595 8.38526 97.1875 8.38526C99.2675 8.38526 100.776 9.88896 101.712 12.8445L102.596 12.5853L102.388 8.126ZM52.3635 7.65933C51.6355 7.29637 50.8555 7.14081 49.9715 7.14081C49.0875 7.14081 48.2035 7.50378 47.2155 8.2297C46.2275 8.95563 45.4995 9.94081 44.9275 11.289L44.9795 7.14081L37.0755 8.69637V9.4223L37.8555 9.47415C38.8435 9.57785 39.4155 10.3556 39.5195 11.7556C39.8315 14.9704 39.8315 18.3927 39.5195 22.0223C39.4155 23.4223 38.8435 24.1482 37.8555 24.3038L37.0755 24.4075V25.3927H48.0995V24.4075L46.6955 24.3038C45.7075 24.2001 45.1355 23.4223 45.0315 22.0223C44.7195 19.0149 44.6675 15.8001 44.9275 12.4816C45.2395 11.963 45.9155 11.6519 46.9555 11.5482C47.9955 11.4445 49.1915 11.7556 50.4395 12.4816L52.3635 7.65933Z" fill="#484848"/>
</svg>
