<svg width="309" height="318" viewBox="0 0 309 318" fill="none" xmlns="http://www.w3.org/2000/svg">
<circle cx="1.65241" cy="1.65241" r="1.65241" fill="#9AC1D0"/>
<circle cx="32.2227" cy="1.65241" r="1.65241" fill="#9AC1D0"/>
<circle cx="62.793" cy="1.65241" r="1.65241" fill="#9AC1D0"/>
<circle cx="93.3594" cy="1.65241" r="1.65241" fill="#9AC1D0"/>
<circle cx="123.93" cy="1.65241" r="1.65241" fill="#9AC1D0"/>
<circle cx="154.5" cy="1.65241" r="1.65241" fill="#9AC1D0"/>
<circle cx="1.65241" cy="1.65241" r="1.65241" fill="#9AC1D0"/>
<circle cx="32.2227" cy="1.65241" r="1.65241" fill="#9AC1D0"/>
<circle cx="62.793" cy="1.65241" r="1.65241" fill="#9AC1D0"/>
<circle cx="93.3594" cy="1.65241" r="1.65241" fill="#9AC1D0"/>
<circle cx="123.93" cy="1.65241" r="1.65241" fill="#9AC1D0"/>
<circle cx="154.5" cy="1.65241" r="1.65241" fill="#9AC1D0"/>
<circle cx="1.65241" cy="33.0489" r="1.65241" fill="#9AC1D0"/>
<circle cx="32.2227" cy="33.0489" r="1.65241" fill="#9AC1D0"/>
<circle cx="62.793" cy="33.0489" r="1.65241" fill="#9AC1D0"/>
<circle cx="93.3594" cy="33.0489" r="1.65241" fill="#9AC1D0"/>
<circle cx="123.93" cy="33.0489" r="1.65241" fill="#9AC1D0"/>
<circle cx="154.5" cy="33.0489" r="1.65241" fill="#9AC1D0"/>
<circle cx="1.65241" cy="64.4434" r="1.65241" fill="#9AC1D0"/>
<circle cx="32.2227" cy="64.4434" r="1.65241" fill="#9AC1D0"/>
<circle cx="62.793" cy="64.4434" r="1.65241" fill="#9AC1D0"/>
<circle cx="93.3594" cy="64.4434" r="1.65241" fill="#9AC1D0"/>
<circle cx="123.93" cy="64.4434" r="1.65241" fill="#9AC1D0"/>
<circle cx="154.5" cy="64.4434" r="1.65241" fill="#9AC1D0"/>
<circle cx="1.65241" cy="95.8399" r="1.65241" fill="#9AC1D0"/>
<circle cx="32.2227" cy="95.8399" r="1.65241" fill="#9AC1D0"/>
<circle cx="62.793" cy="95.8399" r="1.65241" fill="#9AC1D0"/>
<circle cx="93.3594" cy="95.8399" r="1.65241" fill="#9AC1D0"/>
<circle cx="123.93" cy="95.8399" r="1.65241" fill="#9AC1D0"/>
<circle cx="154.5" cy="95.8399" r="1.65241" fill="#9AC1D0"/>
<circle cx="1.65241" cy="127.234" r="1.65241" fill="#9AC1D0"/>
<circle cx="32.2227" cy="127.234" r="1.65241" fill="#9AC1D0"/>
<circle cx="62.793" cy="127.234" r="1.65241" fill="#9AC1D0"/>
<circle cx="93.3594" cy="127.234" r="1.65241" fill="#9AC1D0"/>
<circle cx="123.93" cy="127.234" r="1.65241" fill="#9AC1D0"/>
<circle cx="154.5" cy="127.234" r="1.65241" fill="#9AC1D0"/>
<circle cx="1.65241" cy="158.631" r="1.65241" fill="#9AC1D0"/>
<circle cx="32.2227" cy="158.631" r="1.65241" fill="#9AC1D0"/>
<circle cx="62.793" cy="158.631" r="1.65241" fill="#9AC1D0"/>
<circle cx="93.3594" cy="158.631" r="1.65241" fill="#9AC1D0"/>
<circle cx="123.93" cy="158.631" r="1.65241" fill="#9AC1D0"/>
<circle cx="154.5" cy="158.631" r="1.65241" fill="#9AC1D0"/>
<circle cx="1.65241" cy="158.631" r="1.65241" fill="#9AC1D0"/>
<circle cx="32.2227" cy="158.631" r="1.65241" fill="#9AC1D0"/>
<circle cx="62.793" cy="158.631" r="1.65241" fill="#9AC1D0"/>
<circle cx="93.3594" cy="158.631" r="1.65241" fill="#9AC1D0"/>
<circle cx="123.93" cy="158.631" r="1.65241" fill="#9AC1D0"/>
<circle cx="154.5" cy="158.631" r="1.65241" fill="#9AC1D0"/>
<circle cx="1.65241" cy="158.631" r="1.65241" fill="#9AC1D0"/>
<circle cx="32.2227" cy="158.631" r="1.65241" fill="#9AC1D0"/>
<circle cx="62.793" cy="158.631" r="1.65241" fill="#9AC1D0"/>
<circle cx="93.3594" cy="158.631" r="1.65241" fill="#9AC1D0"/>
<circle cx="123.93" cy="158.631" r="1.65241" fill="#9AC1D0"/>
<circle cx="154.5" cy="158.631" r="1.65241" fill="#9AC1D0"/>
<circle cx="1.65241" cy="190.027" r="1.65241" fill="#9AC1D0"/>
<circle cx="32.2227" cy="190.027" r="1.65241" fill="#9AC1D0"/>
<circle cx="62.793" cy="190.027" r="1.65241" fill="#9AC1D0"/>
<circle cx="93.3594" cy="190.027" r="1.65241" fill="#9AC1D0"/>
<circle cx="123.93" cy="190.027" r="1.65241" fill="#9AC1D0"/>
<circle cx="154.5" cy="190.027" r="1.65241" fill="#9AC1D0"/>
<circle cx="1.65241" cy="221.422" r="1.65241" fill="#9AC1D0"/>
<circle cx="32.2227" cy="221.422" r="1.65241" fill="#9AC1D0"/>
<circle cx="62.793" cy="221.422" r="1.65241" fill="#9AC1D0"/>
<circle cx="93.3594" cy="221.422" r="1.65241" fill="#9AC1D0"/>
<circle cx="123.93" cy="221.422" r="1.65241" fill="#9AC1D0"/>
<circle cx="154.5" cy="221.422" r="1.65241" fill="#9AC1D0"/>
<circle cx="1.65241" cy="252.818" r="1.65241" fill="#9AC1D0"/>
<circle cx="32.2227" cy="252.818" r="1.65241" fill="#9AC1D0"/>
<circle cx="62.793" cy="252.818" r="1.65241" fill="#9AC1D0"/>
<circle cx="93.3594" cy="252.818" r="1.65241" fill="#9AC1D0"/>
<circle cx="123.93" cy="252.818" r="1.65241" fill="#9AC1D0"/>
<circle cx="154.5" cy="252.818" r="1.65241" fill="#9AC1D0"/>
<circle cx="1.65241" cy="284.213" r="1.65241" fill="#9AC1D0"/>
<circle cx="32.2227" cy="284.213" r="1.65241" fill="#9AC1D0"/>
<circle cx="62.793" cy="284.213" r="1.65241" fill="#9AC1D0"/>
<circle cx="93.3594" cy="284.213" r="1.65241" fill="#9AC1D0"/>
<circle cx="123.93" cy="284.213" r="1.65241" fill="#9AC1D0"/>
<circle cx="154.5" cy="284.213" r="1.65241" fill="#9AC1D0"/>
<circle cx="1.65241" cy="315.609" r="1.65241" fill="#9AC1D0"/>
<circle cx="32.2227" cy="315.609" r="1.65241" fill="#9AC1D0"/>
<circle cx="62.793" cy="315.609" r="1.65241" fill="#9AC1D0"/>
<circle cx="93.3594" cy="315.609" r="1.65241" fill="#9AC1D0"/>
<circle cx="123.93" cy="315.609" r="1.65241" fill="#9AC1D0"/>
<circle cx="154.5" cy="315.609" r="1.65241" fill="#9AC1D0"/>
<circle cx="154.5" cy="1.65241" r="1.65241" fill="#9AC1D0"/>
<circle cx="185.07" cy="1.65241" r="1.65241" fill="#9AC1D0"/>
<circle cx="215.641" cy="1.65241" r="1.65241" fill="#9AC1D0"/>
<circle cx="246.207" cy="1.65241" r="1.65241" fill="#9AC1D0"/>
<circle cx="276.777" cy="1.65241" r="1.65241" fill="#9AC1D0"/>
<circle cx="307.348" cy="1.65241" r="1.65241" fill="#9AC1D0"/>
<circle cx="154.5" cy="1.65241" r="1.65241" fill="#9AC1D0"/>
<circle cx="185.07" cy="1.65241" r="1.65241" fill="#9AC1D0"/>
<circle cx="215.641" cy="1.65241" r="1.65241" fill="#9AC1D0"/>
<circle cx="246.207" cy="1.65241" r="1.65241" fill="#9AC1D0"/>
<circle cx="276.777" cy="1.65241" r="1.65241" fill="#9AC1D0"/>
<circle cx="307.348" cy="1.65241" r="1.65241" fill="#9AC1D0"/>
<circle cx="154.5" cy="33.0489" r="1.65241" fill="#9AC1D0"/>
<circle cx="185.07" cy="33.0489" r="1.65241" fill="#9AC1D0"/>
<circle cx="215.641" cy="33.0489" r="1.65241" fill="#9AC1D0"/>
<circle cx="246.207" cy="33.0489" r="1.65241" fill="#9AC1D0"/>
<circle cx="276.777" cy="33.0489" r="1.65241" fill="#9AC1D0"/>
<circle cx="307.348" cy="33.0489" r="1.65241" fill="#9AC1D0"/>
<circle cx="154.5" cy="64.4434" r="1.65241" fill="#9AC1D0"/>
<circle cx="185.07" cy="64.4434" r="1.65241" fill="#9AC1D0"/>
<circle cx="215.641" cy="64.4434" r="1.65241" fill="#9AC1D0"/>
<circle cx="246.207" cy="64.4434" r="1.65241" fill="#9AC1D0"/>
<circle cx="276.777" cy="64.4434" r="1.65241" fill="#9AC1D0"/>
<circle cx="307.348" cy="64.4434" r="1.65241" fill="#9AC1D0"/>
<circle cx="154.5" cy="95.8399" r="1.65241" fill="#9AC1D0"/>
<circle cx="185.07" cy="95.8399" r="1.65241" fill="#9AC1D0"/>
<circle cx="215.641" cy="95.8399" r="1.65241" fill="#9AC1D0"/>
<circle cx="246.207" cy="95.8399" r="1.65241" fill="#9AC1D0"/>
<circle cx="276.777" cy="95.8399" r="1.65241" fill="#9AC1D0"/>
<circle cx="307.348" cy="95.8399" r="1.65241" fill="#9AC1D0"/>
<circle cx="154.5" cy="127.234" r="1.65241" fill="#9AC1D0"/>
<circle cx="185.07" cy="127.234" r="1.65241" fill="#9AC1D0"/>
<circle cx="215.641" cy="127.234" r="1.65241" fill="#9AC1D0"/>
<circle cx="246.207" cy="127.234" r="1.65241" fill="#9AC1D0"/>
<circle cx="276.777" cy="127.234" r="1.65241" fill="#9AC1D0"/>
<circle cx="307.348" cy="127.234" r="1.65241" fill="#9AC1D0"/>
<circle cx="154.5" cy="158.631" r="1.65241" fill="#9AC1D0"/>
<circle cx="185.07" cy="158.631" r="1.65241" fill="#9AC1D0"/>
<circle cx="215.641" cy="158.631" r="1.65241" fill="#9AC1D0"/>
<circle cx="246.207" cy="158.631" r="1.65241" fill="#9AC1D0"/>
<circle cx="276.777" cy="158.631" r="1.65241" fill="#9AC1D0"/>
<circle cx="307.348" cy="158.631" r="1.65241" fill="#9AC1D0"/>
<circle cx="154.5" cy="158.631" r="1.65241" fill="#9AC1D0"/>
<circle cx="185.07" cy="158.631" r="1.65241" fill="#9AC1D0"/>
<circle cx="215.641" cy="158.631" r="1.65241" fill="#9AC1D0"/>
<circle cx="246.207" cy="158.631" r="1.65241" fill="#9AC1D0"/>
<circle cx="276.777" cy="158.631" r="1.65241" fill="#9AC1D0"/>
<circle cx="307.348" cy="158.631" r="1.65241" fill="#9AC1D0"/>
<circle cx="154.5" cy="158.631" r="1.65241" fill="#9AC1D0"/>
<circle cx="185.07" cy="158.631" r="1.65241" fill="#9AC1D0"/>
<circle cx="215.641" cy="158.631" r="1.65241" fill="#9AC1D0"/>
<circle cx="246.207" cy="158.631" r="1.65241" fill="#9AC1D0"/>
<circle cx="276.777" cy="158.631" r="1.65241" fill="#9AC1D0"/>
<circle cx="307.348" cy="158.631" r="1.65241" fill="#9AC1D0"/>
<circle cx="154.5" cy="190.027" r="1.65241" fill="#9AC1D0"/>
<circle cx="185.07" cy="190.027" r="1.65241" fill="#9AC1D0"/>
<circle cx="215.641" cy="190.027" r="1.65241" fill="#9AC1D0"/>
<circle cx="246.207" cy="190.027" r="1.65241" fill="#9AC1D0"/>
<circle cx="276.777" cy="190.027" r="1.65241" fill="#9AC1D0"/>
<circle cx="307.348" cy="190.027" r="1.65241" fill="#9AC1D0"/>
<circle cx="154.5" cy="221.422" r="1.65241" fill="#9AC1D0"/>
<circle cx="185.07" cy="221.422" r="1.65241" fill="#9AC1D0"/>
<circle cx="215.641" cy="221.422" r="1.65241" fill="#9AC1D0"/>
<circle cx="246.207" cy="221.422" r="1.65241" fill="#9AC1D0"/>
<circle cx="276.777" cy="221.422" r="1.65241" fill="#9AC1D0"/>
<circle cx="307.348" cy="221.422" r="1.65241" fill="#9AC1D0"/>
<circle cx="154.5" cy="252.818" r="1.65241" fill="#9AC1D0"/>
<circle cx="185.07" cy="252.818" r="1.65241" fill="#9AC1D0"/>
<circle cx="215.641" cy="252.818" r="1.65241" fill="#9AC1D0"/>
<circle cx="246.207" cy="252.818" r="1.65241" fill="#9AC1D0"/>
<circle cx="276.777" cy="252.818" r="1.65241" fill="#9AC1D0"/>
<circle cx="307.348" cy="252.818" r="1.65241" fill="#9AC1D0"/>
<circle cx="154.5" cy="284.213" r="1.65241" fill="#9AC1D0"/>
<circle cx="185.07" cy="284.213" r="1.65241" fill="#9AC1D0"/>
<circle cx="215.641" cy="284.213" r="1.65241" fill="#9AC1D0"/>
<circle cx="246.207" cy="284.213" r="1.65241" fill="#9AC1D0"/>
<circle cx="276.777" cy="284.213" r="1.65241" fill="#9AC1D0"/>
<circle cx="307.348" cy="284.213" r="1.65241" fill="#9AC1D0"/>
<circle cx="154.5" cy="315.609" r="1.65241" fill="#9AC1D0"/>
<circle cx="185.07" cy="315.609" r="1.65241" fill="#9AC1D0"/>
<circle cx="215.641" cy="315.609" r="1.65241" fill="#9AC1D0"/>
<circle cx="246.207" cy="315.609" r="1.65241" fill="#9AC1D0"/>
<circle cx="276.777" cy="315.609" r="1.65241" fill="#9AC1D0"/>
<circle cx="307.348" cy="315.609" r="1.65241" fill="#9AC1D0"/>
</svg>
