<svg width="18" height="19" viewBox="0 0 18 19" fill="none" xmlns="http://www.w3.org/2000/svg">
<g clip-path="url(#clip0)" >
    <path d="M12.75 2.00391H5.25C3.17893 2.00391 1.5 3.68284 1.5 5.75391V13.2539C1.5 15.325 3.17893 17.0039 5.25 17.0039H12.75C14.8211 17.0039 16.5 15.325 16.5 13.2539V5.75391C16.5 3.68284 14.8211 2.00391 12.75 2.00391Z" stroke="white" stroke-width="2" stroke-linecap="round" stroke-linejoin="round"/>
    <path d="M11.9988 9.0287C12.0914 9.65289 11.9847 10.2904 11.6941 10.8505C11.4035 11.4106 10.9437 11.8648 10.38 12.1485C9.81638 12.4322 9.17764 12.5309 8.55464 12.4307C7.93165 12.3304 7.35612 12.0363 6.90993 11.5901C6.46374 11.1439 6.1696 10.5684 6.06935 9.94536C5.96911 9.32237 6.06785 8.68362 6.35155 8.11998C6.63524 7.55634 7.08944 7.09651 7.64954 6.80588C8.20964 6.51526 8.84712 6.40864 9.4713 6.5012C10.108 6.59562 10.6974 6.8923 11.1526 7.34743C11.6077 7.80257 11.9044 8.39201 11.9988 9.0287Z" stroke="white" stroke-width="2" stroke-linecap="round" stroke-linejoin="round"/>
    <ellipse cx="13.125" cy="5.37891" rx="1.125" ry="1.125" fill="#1A222A"/>
</g>
<defs>
    <clipPath id="clip0">
        <rect y="0.503906" width="18" height="18" fill="#1A222A"/>
    </clipPath>
</defs>
</svg>
