<?xml version="1.0" encoding="utf-8"?>
<!-- Generator: Adobe Illustrator 24.1.2, SVG Export Plug-In . SVG Version: 6.00 Build 0)  -->
<svg version="1.1" id="Layer_1" xmlns="http://www.w3.org/2000/svg" xmlns:xlink="http://www.w3.org/1999/xlink" x="0px" y="0px"
	 viewBox="0 0 50 50" style="enable-background:new 0 0 50 50;" xml:space="preserve">
<g>
	<path d="M35.4,20.7c0-1.1-0.2-1.9-0.5-2.5c-0.3-0.7-0.7-1.3-1.2-1.9c-0.5-0.5-1.2-0.9-1.9-1.2c-0.7-0.3-1.4-0.4-2.5-0.5
		c-1.1-0.1-1.5-0.1-4.3-0.1s-3.2,0-4.3,0.1c-1.1,0-1.9,0.2-2.5,0.5c-0.7,0.3-1.3,0.7-1.9,1.2c-0.5,0.5-0.9,1.2-1.2,1.9
		c-0.3,0.7-0.4,1.4-0.5,2.5c-0.1,1.1-0.1,1.5-0.1,4.3s0,3.2,0.1,4.3c0,1.1,0.2,1.9,0.5,2.5c0.3,0.7,0.7,1.3,1.2,1.9
		c0.5,0.5,1.2,0.9,1.9,1.2c0.7,0.3,1.4,0.4,2.5,0.5c1.1,0,1.5,0.1,4.3,0.1s3.2,0,4.3-0.1c1.1,0,1.9-0.2,2.5-0.5
		c1.4-0.5,2.5-1.7,3.1-3.1c0.3-0.7,0.4-1.4,0.5-2.5c0-1.1,0.1-1.5,0.1-4.3S35.5,21.8,35.4,20.7z M33.6,29.2c0,1-0.2,1.6-0.4,1.9
		c-0.4,0.9-1.1,1.6-2,2c-0.4,0.1-0.9,0.3-1.9,0.4c-1.1,0-1.4,0.1-4.2,0.1s-3.1,0-4.2-0.1c-1,0-1.6-0.2-1.9-0.4
		c-0.5-0.2-0.9-0.4-1.2-0.8c-0.3-0.3-0.6-0.8-0.8-1.2c-0.1-0.4-0.3-0.9-0.4-1.9c0-1.1-0.1-1.4-0.1-4.2s0-3.1,0.1-4.2
		c0-1,0.2-1.6,0.4-1.9c0.2-0.5,0.4-0.9,0.8-1.2c0.3-0.3,0.8-0.6,1.2-0.8c0.4-0.1,0.9-0.3,1.9-0.4c1.1,0,1.4-0.1,4.2-0.1
		c2.8,0,3.1,0,4.2,0.1c1,0,1.6,0.2,1.9,0.4c0.5,0.2,0.9,0.4,1.2,0.8c0.3,0.3,0.6,0.8,0.8,1.2c0.1,0.4,0.3,0.9,0.4,1.9
		c0,1.1,0.1,1.4,0.1,4.2S33.6,28.1,33.6,29.2z" fill="#1A222A"/>
	<path d="M25,19.6c-3,0-5.4,2.4-5.4,5.4s2.4,5.4,5.4,5.4c3,0,5.4-2.4,5.4-5.4S28,19.6,25,19.6z M25,28.5c-1.9,0-3.5-1.6-3.5-3.5
		s1.6-3.5,3.5-3.5c1.9,0,3.5,1.6,3.5,3.5S26.9,28.5,25,28.5z" fill="#1A222A"/>
	<path d="M31.9,19.4c0,0.7-0.6,1.3-1.3,1.3c-0.7,0-1.3-0.6-1.3-1.3c0-0.7,0.6-1.3,1.3-1.3C31.3,18.1,31.9,18.7,31.9,19.4z" fill="#1A222A"/>
</g>
</svg>
