<svg width="216" height="23" viewBox="0 0 216 23" fill="none" xmlns="http://www.w3.org/2000/svg">
<path fill-rule="evenodd" clip-rule="evenodd" d="M126.718 5.39323C126.757 5.41073 126.832 5.44573 126.87 5.46149C126.82 5.43754 126.769 5.41478 126.718 5.39323ZM110.962 8.86348C112.332 9.16448 113.471 9.74286 114.257 10.5382C115.188 11.4832 115.659 12.7371 115.659 14.2666V15.0646C115.659 19.2996 112.103 21.1966 108.577 21.1966C106.323 21.1966 104.375 20.4791 103.092 19.1806C102.045 18.1219 101.493 16.6982 101.493 15.0646V14.2666C101.493 12.7354 101.965 11.4832 102.896 10.5382C103.694 9.73236 104.856 9.14698 106.256 8.84861L106.189 8.54236C104.729 8.85123 103.512 9.46549 102.669 10.3186C101.678 11.3222 101.176 12.6496 101.176 14.2666V15.0646C101.176 16.7796 101.76 18.282 102.865 19.3994C104.209 20.76 106.239 21.5116 108.577 21.5116C112.26 21.5116 115.976 19.5166 115.976 15.0646V14.2666C115.976 12.6514 115.474 11.3231 114.484 10.3186C113.654 9.48036 112.46 8.87048 111.03 8.55548L110.962 8.86348ZM111.926 6.73636C111.971 6.73613 112.015 6.72711 112.056 6.70982C112.097 6.69252 112.134 6.66729 112.165 6.63558C112.196 6.60387 112.221 6.5663 112.237 6.52503C112.254 6.48376 112.262 6.43961 112.262 6.39511C112.262 6.35057 112.254 6.30637 112.238 6.26505C112.221 6.22374 112.196 6.18611 112.165 6.15433C112.134 6.12255 112.097 6.09724 112.056 6.07985C112.015 6.06246 111.971 6.05333 111.926 6.05298C111.881 6.05321 111.837 6.06228 111.796 6.07966C111.755 6.09704 111.717 6.1224 111.686 6.15428C111.654 6.18615 111.63 6.22391 111.613 6.26539C111.596 6.30687 111.588 6.35125 111.588 6.39598C111.588 6.58324 111.739 6.73636 111.926 6.73636ZM111.504 5.64173C111.469 5.61175 111.428 5.58929 111.383 5.57573C111.339 5.56217 111.292 5.55779 111.246 5.56287C111.2 5.56795 111.156 5.58237 111.115 5.60526C111.075 5.62814 111.04 5.65901 111.012 5.69598C110.977 5.73886 110.954 5.86398 110.951 5.86923L110.906 6.13786C110.788 6.05654 110.662 5.98625 110.531 5.92786L110.754 5.73711C110.755 5.73011 110.859 5.63736 110.879 5.58048C110.897 5.5323 110.906 5.48083 110.905 5.42913C110.903 5.37743 110.891 5.32657 110.87 5.27955C110.848 5.23254 110.818 5.19033 110.779 5.15545C110.741 5.12056 110.696 5.09371 110.648 5.07648C110.45 5.00911 110.236 5.11323 110.162 5.33286C110.143 5.38886 110.167 5.52711 110.166 5.53411L110.223 5.80798C110.067 5.7559 109.909 5.71266 109.748 5.67848L109.946 5.43261C109.949 5.42386 110.045 5.30048 110.052 5.23486C110.063 5.1788 110.063 5.12103 110.052 5.06501C110.04 5.00899 110.017 4.95586 109.985 4.90881C109.952 4.86175 109.911 4.82174 109.862 4.79117C109.814 4.76059 109.76 4.74008 109.704 4.73086C109.474 4.69673 109.26 4.85336 109.221 5.10798C109.212 5.17361 109.267 5.31886 109.265 5.32848L109.382 5.61636C109.218 5.59304 109.053 5.57756 108.887 5.56998C108.968 5.51178 109.034 5.43536 109.08 5.34689C109.126 5.25842 109.15 5.1604 109.151 5.06073C109.151 4.71948 108.871 4.38086 108.576 4.38086C108.282 4.38086 108.002 4.72036 108.002 5.06073C108.002 5.16092 108.026 5.25955 108.073 5.34822C108.12 5.4369 108.187 5.51298 108.269 5.56998C108.095 5.57873 107.928 5.59623 107.765 5.61723L107.881 5.32848C107.88 5.31973 107.934 5.17361 107.926 5.10798C107.888 4.85423 107.674 4.69673 107.445 4.73173C107.215 4.76673 107.058 4.98023 107.094 5.23486C107.103 5.30048 107.199 5.42386 107.199 5.43261L107.403 5.68111C107.233 5.71611 107.071 5.75986 106.922 5.81061L106.981 5.53411C106.979 5.52711 107.005 5.38886 106.984 5.33286C106.97 5.28362 106.946 5.23776 106.913 5.19802C106.881 5.15827 106.841 5.12545 106.796 5.10153C106.75 5.0776 106.701 5.06305 106.65 5.05874C106.599 5.05444 106.547 5.06048 106.498 5.07648C106.45 5.09419 106.406 5.12134 106.368 5.15636C106.33 5.19139 106.3 5.23358 106.278 5.28048C106.257 5.32739 106.245 5.37806 106.244 5.42957C106.242 5.48107 106.251 5.53237 106.269 5.58048C106.286 5.63736 106.392 5.73011 106.393 5.73799L106.617 5.92873C106.486 5.98822 106.36 6.05999 106.241 6.14311L106.197 5.86923C106.195 5.86398 106.17 5.73798 106.136 5.69598C106.002 5.53586 105.787 5.51836 105.642 5.64173C105.607 5.67253 105.578 5.71 105.557 5.75198C105.536 5.79395 105.524 5.8396 105.521 5.8863C105.518 5.93299 105.525 5.9798 105.54 6.02403C105.555 6.06826 105.579 6.10903 105.61 6.14398C105.644 6.18511 105.763 6.22973 105.768 6.23586L106.029 6.32686C105.999 6.35836 105.973 6.38811 105.95 6.41961C106.637 6.29973 107.641 6.16498 108.592 6.16498C109.669 6.16498 110.517 6.31986 111.237 6.46686C111.203 6.41675 111.166 6.36936 111.125 6.32511L111.379 6.23586C111.384 6.22973 111.502 6.18511 111.537 6.14398C111.568 6.10908 111.592 6.06829 111.607 6.024C111.623 5.97972 111.629 5.93283 111.626 5.88607C111.623 5.83931 111.611 5.79361 111.59 5.75166C111.569 5.70971 111.54 5.67234 111.504 5.64173ZM105.221 6.73636C105.176 6.73625 105.132 6.72732 105.091 6.71008C105.05 6.69285 105.012 6.66765 104.981 6.63594C104.95 6.60423 104.925 6.56663 104.908 6.5253C104.891 6.48397 104.883 6.43973 104.883 6.39511C104.883 6.20523 105.035 6.05298 105.221 6.05298C105.408 6.05298 105.559 6.20523 105.559 6.39598C105.559 6.44053 105.55 6.48468 105.533 6.52591C105.517 6.56714 105.492 6.60463 105.46 6.63625C105.429 6.66787 105.392 6.69299 105.351 6.71017C105.31 6.72734 105.265 6.73625 105.221 6.73636Z" fill="#484848"/>
<path fill-rule="evenodd" clip-rule="evenodd" d="M108.575 4.13752C108.839 4.13752 109.097 4.31689 109.227 4.55139V3.75864L108.838 3.82164L108.927 3.46289H108.223L108.312 3.82164L107.922 3.75864V4.55139C108.053 4.31689 108.31 4.13752 108.575 4.13752ZM111.683 7.14577C111.683 7.04252 111.575 6.94627 111.385 6.85702L111.361 7.28752L111.039 7.06702L110.88 7.64189L111.28 7.63577C111.201 7.81689 110.472 8.28152 110.154 7.60339C110.049 7.35139 110.267 7.23064 110.352 7.26302C110.486 7.29977 110.529 7.40302 110.5 7.46339C110.844 7.40477 110.912 7.01539 110.383 6.86664C110.161 6.80802 110.14 6.66539 110.113 6.54989V6.53764C110.067 6.64789 110.052 6.79139 109.823 6.80889C109.276 6.86402 109.295 7.26739 109.625 7.38639C109.604 7.31989 109.652 7.22189 109.792 7.20702C109.879 7.18952 110.05 7.34089 109.903 7.56927C109.782 7.77402 108.994 8.13189 108.697 7.16764C108.917 7.17464 109.117 7.21839 109.227 7.41527V6.76164L108.837 6.82464L108.926 6.46589H108.222L108.311 6.82464L107.923 6.76164V7.41527C108.031 7.22102 108.227 7.17639 108.446 7.16764C108.148 8.13189 107.363 7.77401 107.238 7.57014C107.093 7.34089 107.262 7.18952 107.352 7.20702C107.492 7.22189 107.536 7.32077 107.518 7.38727C107.848 7.26739 107.868 6.86402 107.32 6.80977C107.092 6.79227 107.077 6.64789 107.028 6.53764L107.03 6.54989C107.001 6.66539 106.982 6.80802 106.761 6.86664C106.231 7.01539 106.3 7.40477 106.644 7.46339C106.613 7.40302 106.657 7.29977 106.79 7.26302C106.877 7.23064 107.095 7.35139 106.991 7.60427C106.671 8.28152 105.941 7.81689 105.862 7.63577L106.263 7.64189L106.105 7.06702L105.782 7.28752L105.738 6.86752C105.563 6.95239 105.463 7.04777 105.463 7.14577L105.74 7.71277C105.798 7.88514 105.854 7.96127 105.795 8.13714C106.002 8.26839 106.062 8.49589 105.937 8.74264C105.937 9.05502 107.117 9.30789 108.572 9.30789H108.574C110.029 9.30789 111.208 9.05414 111.208 8.74264C111.084 8.49502 111.143 8.26752 111.35 8.13714C111.292 7.96214 111.348 7.88514 111.405 7.71277L111.683 7.14577ZM108.575 9.09439C107.393 9.09439 106.436 8.93689 106.436 8.74264C106.436 8.55014 107.394 8.39177 108.575 8.39177C109.756 8.39177 110.713 8.54927 110.713 8.74264C110.713 8.93602 109.756 9.09439 108.575 9.09439ZM88.2169 6.56564C88.2909 6.56495 88.3617 6.53505 88.4138 6.48245C88.4659 6.42985 88.4951 6.35881 88.4951 6.28477C88.4956 6.24792 88.4888 6.21135 88.4751 6.17714C88.4614 6.14294 88.441 6.11177 88.4153 6.08544C88.3895 6.0591 88.3588 6.03811 88.3249 6.02366C88.291 6.00922 88.2546 6.00161 88.2177 6.00127C88.1808 6.00149 88.1442 6.00902 88.1102 6.0234C88.0761 6.03778 88.0453 6.05874 88.0193 6.08508C87.9934 6.11141 87.9729 6.14261 87.9591 6.17688C87.9452 6.21114 87.9383 6.24781 87.9386 6.28477C87.9386 6.43789 88.0637 6.56652 88.2177 6.56652L88.2169 6.56564ZM87.8756 5.66089C87.7549 5.55852 87.5781 5.57339 87.4661 5.70552C87.439 5.74052 87.4197 5.84552 87.4154 5.84989L87.3804 6.07214C87.2821 6.00444 87.1778 5.94586 87.0689 5.89714L87.2526 5.73964C87.2561 5.73439 87.3427 5.65564 87.3576 5.61014C87.4189 5.42814 87.3314 5.24877 87.1669 5.19277C87.0032 5.13502 86.8256 5.22427 86.7644 5.40539C86.7477 5.45089 86.7696 5.56552 86.767 5.57164L86.8151 5.79914C86.6853 5.75505 86.5529 5.71882 86.4187 5.69064L86.5859 5.48502C86.5876 5.47889 86.6655 5.37914 86.6734 5.32489C86.7057 5.11402 86.5736 4.93552 86.3846 4.90664C86.193 4.87777 86.0162 5.00902 85.9847 5.21989C85.9777 5.27414 86.0215 5.39489 86.0215 5.40102L86.1177 5.63727C85.9865 5.61977 85.8465 5.60927 85.7082 5.59964C85.7754 5.55196 85.8303 5.48904 85.8685 5.41603C85.9067 5.34303 85.927 5.26202 85.9279 5.17964C85.9279 4.89702 85.6951 4.61702 85.4519 4.61702C85.2086 4.61702 84.975 4.89702 84.975 5.17877C84.975 5.35377 85.0669 5.50952 85.1964 5.59964C85.0569 5.60826 84.9177 5.62139 84.779 5.63902L84.8735 5.40102C84.8735 5.39577 84.9207 5.27414 84.912 5.21989C84.8805 5.00902 84.7046 4.87864 84.5139 4.90664C84.3231 4.93552 84.1927 5.11402 84.2242 5.32489C84.233 5.37914 84.3109 5.47889 84.3117 5.48502L84.4797 5.69239C84.3452 5.72035 84.2126 5.75659 84.0825 5.80089L84.128 5.57252C84.128 5.56552 84.1499 5.45089 84.1332 5.40539C84.072 5.22427 83.8944 5.13502 83.7307 5.19277C83.568 5.24877 83.4787 5.42814 83.54 5.61014C83.5557 5.65564 83.6424 5.73439 83.6432 5.73964L83.8287 5.89889C83.7124 5.95402 83.6074 6.01264 83.5181 6.07652L83.4831 5.84989C83.4787 5.84464 83.4604 5.73964 83.4315 5.70552C83.3204 5.57427 83.1427 5.55852 83.0229 5.66089C82.9021 5.76152 82.8855 5.94089 82.9966 6.07652C83.0237 6.10977 83.1217 6.14652 83.1261 6.15089L83.3414 6.22614C83.3177 6.25239 83.2959 6.27602 83.2757 6.30489C83.8462 6.20427 84.6757 6.09139 85.4659 6.09139C86.3566 6.09139 87.0584 6.22089 87.6534 6.34514C87.6264 6.30203 87.5953 6.26159 87.5606 6.22439L87.7724 6.15089C87.7767 6.14739 87.8739 6.10977 87.901 6.07652C88.013 5.94177 87.9964 5.76152 87.8747 5.66089H87.8756ZM82.6659 6.56564C82.6291 6.56553 82.5927 6.55817 82.5588 6.54399C82.5249 6.52981 82.4941 6.50909 82.4681 6.48301C82.4422 6.45693 82.4217 6.426 82.4077 6.39198C82.3938 6.35797 82.3866 6.32154 82.3867 6.28477C82.3863 6.24778 82.3932 6.21106 82.407 6.17674C82.4208 6.14242 82.4412 6.11118 82.4672 6.08482C82.4932 6.05846 82.5241 6.0375 82.5582 6.02316C82.5923 6.00882 82.6289 6.00138 82.6659 6.00127C82.7029 6.00138 82.7395 6.00882 82.7736 6.02316C82.8077 6.0375 82.8386 6.05846 82.8645 6.08482C82.8905 6.11118 82.911 6.14242 82.9248 6.17674C82.9386 6.21106 82.9455 6.24778 82.945 6.28477C82.9452 6.32161 82.9382 6.35814 82.9243 6.39225C82.9104 6.42637 82.8898 6.4574 82.8639 6.48358C82.838 6.50975 82.8071 6.53055 82.7732 6.54478C82.7392 6.55902 82.7027 6.5664 82.6659 6.56652" fill="#484848"/>
<path fill-rule="evenodd" clip-rule="evenodd" d="M85.4532 4.41567C85.6719 4.41567 85.8846 4.56267 85.9948 4.75692V4.10242L85.6711 4.15492L85.7446 3.85742H85.1627L85.2353 4.15492L84.9116 4.10242V4.7578C85.0209 4.56267 85.2336 4.41655 85.4541 4.41655L85.4532 4.41567ZM88.0257 6.90767C88.0257 6.8228 87.9382 6.73967 87.7798 6.66792L87.7588 7.02317L87.4937 6.84205L87.3624 7.31717L87.6932 7.3128C87.6276 7.4633 87.0247 7.84655 86.7596 7.28655C86.6729 7.07742 86.8532 6.9768 86.9241 7.00392C87.0352 7.03367 87.0711 7.11942 87.0466 7.17017C87.3318 7.12117 87.3878 6.7983 86.9503 6.6758C86.7666 6.62855 86.7491 6.50955 86.7263 6.4133V6.40192C86.6896 6.49467 86.6756 6.61455 86.4866 6.62942C86.0333 6.67492 86.0491 7.0083 86.3229 7.1063C86.3063 7.0503 86.3422 6.9698 86.4603 6.95755C86.5347 6.94442 86.6747 7.06692 86.5539 7.25767C86.4516 7.42655 85.8014 7.72142 85.5556 6.92517C85.7367 6.93217 85.9012 6.96717 85.9931 7.1308V6.5883L85.6719 6.6408L85.7446 6.3433H85.1627L85.2353 6.6408L84.9124 6.5883V7.1308C85.0034 6.96717 85.1662 6.93305 85.3456 6.92517C85.1006 7.72142 84.4496 7.42655 84.3472 7.25767C84.2264 7.06692 84.3664 6.94442 84.4417 6.95755C84.5572 6.9698 84.5957 7.0503 84.5791 7.1063C84.8503 7.0083 84.8678 6.67492 84.4146 6.62942C84.2264 6.61455 84.2124 6.49467 84.1739 6.40192V6.4133C84.1503 6.50955 84.1337 6.62855 83.9517 6.6758C83.5124 6.7983 83.5684 7.12117 83.8537 7.17017C83.8292 7.11942 83.8651 7.03367 83.9779 7.00392C84.0479 6.97767 84.2291 7.07742 84.1407 7.28567C83.8756 7.84655 83.2727 7.4633 83.2071 7.3128L83.5369 7.31717L83.4074 6.84205L83.1414 7.02317L83.1038 6.67755C82.9586 6.74755 82.8781 6.82455 82.8781 6.90767L83.1073 7.37755C83.1537 7.51842 83.2001 7.5823 83.1519 7.72755C83.3243 7.83692 83.7084 8.21405 83.7084 8.21405C83.7084 8.36717 84.0462 8.54217 84.0462 8.54217C84.2343 7.88767 85.0332 7.97605 85.5241 7.97605H85.9826C86.6266 7.97605 87.0956 8.10555 87.0754 8.54217C87.4228 8.45992 87.3388 8.26042 87.4902 8.14842C87.6652 8.01717 87.5794 7.83692 87.7527 7.72667C87.7028 7.5823 87.7492 7.51842 87.7964 7.37667L88.0257 6.90767ZM88.8718 17.7988C89.3601 17.9134 90.7758 17.9134 91.1319 17.8758C91.3568 17.7612 91.6963 17.1513 91.8459 16.6937C91.8827 16.5799 91.6963 16.3122 91.6963 16.3122C91.6963 16.4268 91.7707 16.5414 91.7331 16.6937C91.6561 16.8459 91.5668 17.2204 91.0768 17.7927L88.8718 17.7988ZM82.6497 18.1339C83.0662 18.1339 83.4503 18.2284 83.6367 18.5618C83.7837 18.8313 83.6988 19.2592 83.3523 19.4604C83.1511 19.5777 82.9367 19.6293 82.7223 19.6293H81.7266V19.5812C81.8823 19.5812 81.9716 19.5112 81.9716 19.3965V18.3667C81.9716 18.2529 81.8823 18.1803 81.7266 18.1803V18.1339H82.6497ZM82.4484 19.4237C82.4484 19.5462 82.4519 19.5584 82.5753 19.5584C82.9953 19.5584 83.0784 19.3721 83.1248 19.2723C83.2482 19.0054 83.2412 18.5285 83.0146 18.3264C82.8667 18.1969 82.7459 18.2048 82.5753 18.2048C82.4519 18.2048 82.4476 18.2162 82.4476 18.3387V19.4237H82.4484ZM84.6736 19.6695C84.6718 19.7815 84.7593 19.8673 84.9509 19.8988V19.9434L83.9211 19.7667V19.7212C84.1136 19.7544 84.2011 19.6993 84.2019 19.5882L84.2107 18.5907C84.2107 18.4787 84.1232 18.3938 83.9316 18.3597V18.3159L84.9632 18.4935L84.9614 18.5382C84.7681 18.5058 84.6814 18.5618 84.6797 18.672L84.6736 19.6695ZM96.4021 19.5339C96.4021 19.6389 96.4896 19.7247 96.6427 19.7509V19.7947L95.6951 19.624V19.5821C95.8473 19.6101 95.9357 19.5575 95.9357 19.4499V18.3299C95.8631 18.3194 95.6749 18.2599 95.5113 18.3509C95.3687 18.4288 95.3713 18.5277 95.3547 18.5802L95.2899 18.5679V18.1505L97.0461 18.4655V18.882L96.9822 18.8698C96.9647 18.8138 96.9708 18.7149 96.8247 18.5863C96.6619 18.4375 96.4721 18.4297 96.4021 18.4148V19.5348V19.5339ZM88.9873 20.3197C88.9873 20.7125 88.6434 20.7939 88.1508 20.6907C87.6328 20.5813 87.4254 20.2899 87.4254 20.1298V19.2565C87.4254 19.141 87.3353 19.0527 87.1769 19.0255V18.9792L88.1534 19.1481V19.1944C87.9959 19.1656 87.9049 19.2242 87.9049 19.3371V20.1359C87.9049 20.2996 87.9504 20.4877 88.1806 20.5787C88.3853 20.6574 88.8692 20.7335 88.8692 20.3048V19.5059C88.8692 19.3904 88.7861 19.3047 88.6286 19.274V19.2285L89.2288 19.3318V19.3791C89.0713 19.3528 88.9873 19.4088 88.9873 19.5252V20.3197ZM85.8758 19.9329C85.8723 20.0397 85.8872 20.0721 86.0333 20.1035C86.4402 20.1954 86.6642 20.1429 86.8786 19.8787L86.9556 19.8927L86.8138 20.2952L85.1784 20.0231L85.1811 19.9793C85.3298 20.0038 85.4191 19.9504 85.4217 19.8446L85.4611 18.8733C85.4672 18.7665 85.3823 18.6834 85.2344 18.6589L85.2362 18.6152L86.8506 18.8847L86.8331 19.3134L86.7744 19.3029C86.7508 19.2277 86.7386 18.9459 86.2906 18.8619L86.0456 18.8164C85.9423 18.7981 85.9213 18.8138 85.9161 18.9188L85.8986 19.3939C86.2276 19.4351 86.2801 19.4106 86.3816 19.1638L86.4419 19.1734L86.4139 19.8612L86.3536 19.8515C86.2731 19.5733 86.2232 19.5313 85.8951 19.463L85.8758 19.9329ZM93.9337 19.2539C93.9293 19.3598 93.9459 19.3913 94.0903 19.4106C94.4981 19.4657 94.7229 19.3931 94.9364 19.1095L95.0152 19.1139L94.8717 19.533L93.2354 19.4062L93.2372 19.3624C93.3877 19.3738 93.4769 19.3125 93.4804 19.2049L93.5189 18.231C93.5242 18.1234 93.4402 18.049 93.2914 18.0385L93.2941 17.9948L94.9084 18.1182L94.8892 18.5469L94.8332 18.5443C94.8087 18.4708 94.7982 18.1873 94.3484 18.147L94.1034 18.1225C93.9993 18.1129 93.9774 18.1295 93.9748 18.2354L93.9556 18.7114C94.2854 18.7228 94.3371 18.6939 94.4394 18.4384L94.4998 18.4419L94.4718 19.1332L94.4114 19.1288C94.3327 18.8575 94.2811 18.8208 93.9529 18.7823L93.9337 19.2539Z" fill="#484848"/>
<path fill-rule="evenodd" clip-rule="evenodd" d="M132.355 18.6445C132.398 18.6708 132.442 18.6988 132.491 18.7277C132.471 18.6769 132.425 18.6498 132.355 18.6445Z" fill="#231F20"/>
<path fill-rule="evenodd" clip-rule="evenodd" d="M125.197 19.3695L124.014 18.3283V19.1464C124.014 19.2453 124.088 19.3092 124.229 19.3092V19.3503H123.694V19.3092C123.834 19.3092 123.908 19.2453 123.908 19.1464V18.2364L123.809 18.1489C123.771 18.1165 123.745 18.0763 123.673 18.0763V18.0352H124.237L125.17 18.8682V18.2408C125.17 18.1402 125.096 18.0763 124.956 18.0763V18.0352H125.489V18.0763C125.349 18.0763 125.276 18.1402 125.276 18.2408V19.3695H125.197ZM123.23 19.3363C123.063 19.433 122.876 19.4927 122.684 19.5113C122.498 19.5273 122.311 19.5001 122.137 19.4317C122.024 19.3883 121.926 19.3114 121.858 19.2112C121.789 19.1109 121.753 18.9922 121.754 18.8708C121.758 18.7418 121.795 18.6161 121.862 18.5059C121.93 18.3958 122.024 18.305 122.137 18.2425C122.314 18.1437 122.504 18.085 122.684 18.0684C122.863 18.0535 123.052 18.078 123.23 18.1507C123.343 18.194 123.44 18.2706 123.508 18.3703C123.576 18.47 123.612 18.5881 123.612 18.7089C123.612 18.9495 123.472 19.1972 123.23 19.3363ZM122.849 19.4168C122.957 19.366 123.03 19.2829 123.094 19.1403C123.134 19.0493 123.16 18.904 123.16 18.7492C123.16 18.5952 123.134 18.4552 123.093 18.3694C123.03 18.2382 122.957 18.169 122.848 18.1384C122.789 18.1209 122.734 18.1174 122.684 18.1209C122.627 18.127 122.571 18.143 122.519 18.1682C122.41 18.2154 122.337 18.2994 122.275 18.4403C122.227 18.5651 122.204 18.6979 122.207 18.8314C122.207 18.9845 122.233 19.128 122.275 19.212C122.336 19.3433 122.41 19.415 122.52 19.4439C122.573 19.4598 122.629 19.4649 122.684 19.4588C122.741 19.454 122.796 19.4398 122.849 19.4168Z" fill="#484848"/>
<path fill-rule="evenodd" clip-rule="evenodd" d="M121.549 19.4263C121.549 19.5295 121.632 19.582 121.769 19.5575V19.5995L120.901 19.7561V19.715C121.04 19.6888 121.121 19.61 121.12 19.5068L121.115 18.5355L120.437 19.8419L120.376 19.8524L119.707 18.7875L119.712 19.7631C119.714 19.8664 119.791 19.918 119.929 19.8935V19.9329L119.394 20.0326V19.9898C119.535 19.9653 119.608 19.8865 119.608 19.7833L119.603 18.8531C119.603 18.7105 119.531 18.6939 119.359 18.7236V18.6816L120.039 18.5583L120.556 19.3913L121.09 18.3675L121.759 18.245V18.2853C121.622 18.3115 121.541 18.3903 121.541 18.4935L121.548 19.4263H121.549ZM138.747 19.0343C138.747 19.1419 138.831 19.2093 139.009 19.2093V19.2521H138.038V19.2101C138.218 19.2101 138.305 19.1419 138.305 19.0343V18.0691C138.305 17.9624 138.218 17.8941 138.038 17.8941V17.8504H139.009V17.8941C138.831 17.8941 138.747 17.9624 138.747 18.0691V19.0343ZM135.02 18.8706L134.95 18.8794L134.979 19.3064C134.986 19.4114 135.074 19.4674 135.221 19.449L135.225 19.4928L134.31 19.6083L134.306 19.5663C134.455 19.547 134.534 19.4683 134.529 19.3633L134.465 18.4148C134.459 18.308 134.367 18.2511 134.221 18.2704L134.217 18.2284L135.104 18.1146C135.324 18.0884 135.607 18.0823 135.766 18.1733C135.889 18.2459 135.967 18.4008 135.863 18.5425C135.775 18.658 135.651 18.7219 135.482 18.7753L136.056 19.2714C136.141 19.3431 136.168 19.3291 136.203 19.3239L136.206 19.3676L135.647 19.4376L135.02 18.8706ZM134.945 18.8138C135.085 18.7945 135.359 18.7831 135.432 18.595C135.47 18.4883 135.439 18.3203 135.395 18.273C135.334 18.2065 135.234 18.1531 135.02 18.1951C134.964 18.2065 134.908 18.238 134.913 18.2931L134.945 18.8138ZM137.55 19.1708C137.378 19.2731 137.2 19.3318 137.027 19.3493C136.849 19.3633 136.67 19.3348 136.505 19.2661C136.395 19.2199 136.302 19.1419 136.236 19.0421C136.171 18.9423 136.137 18.8253 136.139 18.7061C136.139 18.4646 136.272 18.2196 136.505 18.0779C136.674 17.9773 136.855 17.9186 137.027 17.9029C137.2 17.8898 137.377 17.9143 137.55 17.9851C137.66 18.031 137.754 18.109 137.819 18.2088C137.884 18.3086 137.918 18.4258 137.916 18.5451C137.914 18.6721 137.878 18.7963 137.814 18.9058C137.75 19.0153 137.658 19.1065 137.549 19.1708H137.55ZM137.184 19.2513C137.287 19.2014 137.359 19.1165 137.419 18.9748C137.459 18.8838 137.483 18.7385 137.483 18.5845C137.483 18.4305 137.459 18.2888 137.419 18.2048C137.358 18.0726 137.288 18.0035 137.184 17.972C137.08 17.9407 136.967 17.9514 136.871 18.0018C136.768 18.0508 136.696 18.133 136.636 18.2783C136.598 18.3658 136.571 18.5145 136.571 18.6685C136.571 18.8199 136.598 18.9625 136.636 19.0474C136.696 19.1786 136.767 19.2486 136.872 19.2784C136.928 19.2959 136.98 19.2994 137.027 19.2959C137.082 19.2896 137.135 19.2748 137.185 19.2521L137.184 19.2513ZM140.242 19.162C140.242 19.2679 140.324 19.3475 140.464 19.3633V19.4088L139.588 19.302V19.2583C139.731 19.2749 139.81 19.2163 139.81 19.1113V17.9921C139.746 17.9869 139.569 17.9396 139.416 18.0411C139.285 18.1269 139.287 18.2266 139.274 18.2783L139.215 18.2713V17.8548L140.84 18.0508V18.4646L140.78 18.4576C140.766 18.4034 140.77 18.3045 140.636 18.1864C140.484 18.0499 140.308 18.0551 140.242 18.0438V19.162ZM129.061 12.4C129.158 12.5986 129.101 12.7973 128.895 12.9294C128.891 12.9381 128.886 12.9443 128.885 12.9521C129.465 13.1744 130.204 13.5489 130.982 14.0214C131.76 14.4948 132.431 14.9856 132.896 15.4004C132.903 15.395 132.909 15.3885 132.914 15.3811C132.931 15.1361 133.079 14.9891 133.297 14.9839C133.33 14.8246 133.408 14.7931 133.529 14.6899L133.999 14.3836C134.044 14.3058 134.009 14.1824 133.903 14.0249L133.688 14.3416L133.545 14.024L133.162 14.3889L133.47 14.5718C133.328 14.6724 132.561 14.6881 132.626 14.0205C132.658 13.7834 132.88 13.7895 132.931 13.8543C133.018 13.9461 133.003 14.0433 132.952 14.0756C133.241 14.1911 133.47 13.926 133.135 13.5664C132.991 13.4194 133.041 13.3013 133.074 13.198L133.082 13.191C132.994 13.2523 132.917 13.3555 132.733 13.2645C132.294 13.0519 132.122 13.3669 132.322 13.6101C132.336 13.5515 132.416 13.4964 132.53 13.5515C132.605 13.5786 132.667 13.7738 132.453 13.8788C132.264 13.9776 131.503 13.8849 131.715 13.0108C131.878 13.1201 132.011 13.2453 132.007 13.4483L132.301 12.9486L131.977 12.8165L132.206 12.5838L131.671 12.2565L131.574 12.5698L131.307 12.3414L131.011 12.8401C131.181 12.7413 131.352 12.7999 131.522 12.8944C130.859 13.492 130.421 12.8515 130.419 12.6406C130.412 12.3956 130.61 12.3615 130.67 12.4193C130.771 12.491 130.76 12.5908 130.716 12.6293C131.022 12.6949 131.217 12.3956 130.824 12.099C130.66 11.9791 130.713 11.861 130.726 11.7534L130.723 11.7639C130.649 11.8426 130.569 11.9406 130.373 11.8829C129.901 11.749 129.778 12.0789 130.012 12.2828C130.019 12.2215 130.096 12.1646 130.217 12.1996C130.297 12.2136 130.407 12.4079 130.215 12.5496C129.662 12.9189 129.318 12.2241 129.34 12.0509L129.643 12.2416L129.782 11.7298L129.438 11.7473L129.594 11.4069C129.421 11.3911 129.303 11.4156 129.259 11.4918L129.213 12.0526C129.177 12.2093 129.187 12.295 129.061 12.4ZM122.835 16.5764C123.132 15.7206 123.483 15.0171 123.635 14.7748C123.661 14.7321 123.67 14.6808 123.659 14.6318C123.648 14.5827 123.619 14.5398 123.577 14.5123C123.556 14.4988 123.533 14.4896 123.508 14.4852C123.484 14.4809 123.459 14.4815 123.435 14.4869C123.41 14.4924 123.388 14.5026 123.367 14.517C123.347 14.5315 123.33 14.5498 123.317 14.5709C123.15 14.8378 122.79 15.5579 122.48 16.4495C122.445 16.5475 122.497 16.6595 122.595 16.6919C122.618 16.7004 122.643 16.7042 122.668 16.7029C122.693 16.7017 122.717 16.6955 122.739 16.6848C122.761 16.674 122.781 16.6588 122.798 16.6402C122.814 16.6216 122.826 16.5999 122.834 16.5764H122.835ZM124.003 14.2051C124.382 13.5139 125.203 12.8506 125.52 12.7028C125.543 12.6926 125.564 12.6779 125.581 12.6598C125.598 12.6416 125.611 12.6202 125.62 12.5968C125.628 12.5734 125.632 12.5486 125.631 12.5236C125.63 12.4987 125.624 12.4742 125.614 12.4516C125.604 12.4287 125.59 12.4081 125.571 12.3909C125.553 12.3737 125.532 12.3604 125.509 12.3516C125.485 12.3429 125.46 12.3389 125.435 12.34C125.411 12.3411 125.386 12.3472 125.364 12.358C124.989 12.5321 124.104 13.2356 123.674 14.0205C123.651 14.065 123.645 14.1168 123.659 14.1651C123.673 14.2135 123.704 14.2548 123.747 14.2804C123.769 14.2923 123.793 14.2997 123.818 14.3024C123.842 14.305 123.867 14.3028 123.891 14.2958C123.915 14.2888 123.937 14.2772 123.956 14.2616C123.975 14.2461 123.991 14.2269 124.003 14.2051ZM126.134 12.3843C127.017 12.2793 127.69 12.2425 128.133 12.2696C128.181 12.2693 128.228 12.2507 128.263 12.2176C128.298 12.1845 128.319 12.1393 128.322 12.0912C128.325 12.043 128.31 11.9955 128.279 11.9581C128.249 11.9208 128.205 11.8964 128.157 11.8899C127.693 11.8584 126.996 11.8986 126.09 12.0054C126.04 12.0117 125.995 12.0374 125.964 12.0769C125.933 12.1164 125.919 12.1665 125.925 12.2163C125.937 12.3213 126.03 12.3965 126.134 12.3843H126.134ZM124.408 13.8648L124.384 13.8998C124.16 14.2314 123.631 15.0101 123.46 15.4651C123.441 15.5119 123.443 15.564 123.463 15.61C123.483 15.656 123.52 15.6923 123.566 15.711C123.613 15.7287 123.666 15.727 123.712 15.7063C123.757 15.6857 123.793 15.6477 123.811 15.6008C123.966 15.1886 124.496 14.4099 124.695 14.1159L124.72 14.0809C124.734 14.0602 124.744 14.0369 124.749 14.0123C124.754 13.9877 124.754 13.9624 124.75 13.9377C124.745 13.9131 124.735 13.8896 124.721 13.8687C124.708 13.8477 124.69 13.8297 124.669 13.8158C124.649 13.8018 124.626 13.792 124.602 13.7869C124.577 13.7818 124.553 13.7816 124.528 13.7861C124.504 13.7907 124.481 13.8 124.46 13.8135C124.44 13.8269 124.422 13.8444 124.408 13.8648Z" fill="#484848"/>
<path fill-rule="evenodd" clip-rule="evenodd" d="M125.296 13.4799L125.407 13.3959C125.74 13.1562 126.054 12.9287 126.921 12.8298C126.946 12.8273 126.97 12.8199 126.992 12.808C127.013 12.7961 127.033 12.78 127.048 12.7606C127.064 12.7412 127.075 12.7189 127.082 12.695C127.089 12.6712 127.091 12.6462 127.087 12.6215C127.085 12.5965 127.078 12.5721 127.066 12.55C127.054 12.5278 127.038 12.5083 127.018 12.4925C126.999 12.4767 126.976 12.4651 126.952 12.4582C126.928 12.4514 126.902 12.4495 126.877 12.4527C125.912 12.5612 125.53 12.8403 125.19 13.0888L125.082 13.1675C125.04 13.1963 125.012 13.2404 125.003 13.2901C124.994 13.3398 125.005 13.3911 125.034 13.4327C125.095 13.5184 125.211 13.5394 125.296 13.479" fill="#484848"/>
<path fill-rule="evenodd" clip-rule="evenodd" d="M126.309 13.4877C126.696 13.3818 127.734 13.2891 128.131 13.3258C128.234 13.3346 128.326 13.2558 128.334 13.1508C128.337 13.1264 128.334 13.1017 128.327 13.0783C128.32 13.0549 128.308 13.0331 128.292 13.0142C128.276 12.9954 128.257 12.9798 128.236 12.9684C128.214 12.957 128.19 12.95 128.166 12.9478C127.72 12.9041 126.643 13.0021 126.21 13.1202C126.162 13.134 126.121 13.1665 126.096 13.2104C126.071 13.2543 126.065 13.3062 126.079 13.3547C126.085 13.3788 126.095 13.4015 126.11 13.4214C126.125 13.4413 126.144 13.458 126.165 13.4704C126.187 13.4828 126.211 13.4908 126.235 13.4938C126.26 13.4967 126.285 13.4947 126.309 13.4877ZM125.548 13.4544C125.266 13.6574 124.689 14.3574 124.557 14.6243C124.534 14.6697 124.531 14.7222 124.547 14.7704C124.563 14.8186 124.597 14.8585 124.642 14.8816C124.736 14.9279 124.848 14.8903 124.893 14.7941C124.991 14.6016 125.523 13.9392 125.768 13.7651C125.808 13.7347 125.835 13.6898 125.843 13.64C125.851 13.5901 125.839 13.5392 125.809 13.4982C125.795 13.478 125.777 13.4609 125.756 13.4478C125.735 13.4346 125.712 13.4258 125.688 13.4217C125.664 13.4176 125.639 13.4184 125.615 13.4241C125.591 13.4297 125.568 13.44 125.548 13.4544ZM124.201 15.2911C124.168 15.3803 124.113 15.4836 124.043 15.6131C123.898 15.8861 123.702 16.2544 123.524 16.8424C123.516 16.8663 123.513 16.8914 123.516 16.9163C123.518 16.9412 123.525 16.9654 123.537 16.9874C123.549 17.0095 123.565 17.029 123.584 17.0449C123.603 17.0607 123.626 17.0725 123.65 17.0796C123.673 17.0875 123.698 17.0905 123.723 17.0884C123.748 17.0864 123.772 17.0793 123.794 17.0676C123.816 17.0559 123.836 17.0398 123.851 17.0203C123.867 17.0009 123.878 16.9785 123.885 16.9544C124.052 16.4032 124.239 16.0532 124.375 15.7942C124.449 15.6586 124.512 15.5404 124.554 15.4258C124.571 15.3787 124.57 15.3265 124.549 15.2806C124.528 15.2347 124.49 15.1988 124.443 15.1808C124.42 15.1721 124.396 15.1681 124.371 15.1689C124.346 15.1697 124.322 15.1754 124.299 15.1857C124.277 15.1959 124.257 15.2105 124.24 15.2286C124.223 15.2467 124.21 15.2679 124.201 15.2911ZM123.814 17.5818C123.832 17.5348 123.83 17.4828 123.81 17.437C123.789 17.3912 123.752 17.3552 123.705 17.3368C123.682 17.3282 123.657 17.3242 123.632 17.3251C123.608 17.326 123.583 17.3318 123.561 17.3421C123.539 17.3524 123.518 17.3671 123.502 17.3853C123.485 17.4034 123.472 17.4247 123.463 17.4479C123.433 17.5202 123.399 17.5912 123.363 17.6606L123.814 17.5818ZM127.616 12.7273H129.122C129.147 12.7272 129.171 12.7222 129.194 12.7125C129.217 12.7028 129.238 12.6887 129.255 12.671C129.273 12.6532 129.287 12.6322 129.296 12.6092C129.305 12.5861 129.31 12.5614 129.309 12.5366C129.309 12.5117 129.305 12.4871 129.296 12.4641C129.286 12.4411 129.272 12.4201 129.255 12.4024C129.238 12.3847 129.217 12.3706 129.194 12.3609C129.171 12.3512 129.147 12.346 129.122 12.3458H127.616C127.566 12.3458 127.517 12.3659 127.481 12.4017C127.445 12.4375 127.425 12.486 127.425 12.5366C127.425 12.5872 127.445 12.6357 127.481 12.6714C127.517 12.7072 127.566 12.7273 127.616 12.7273ZM113.901 9.68056H102.98V17.5669C102.98 18.6248 103.624 19.4421 104.94 20.0651L104.947 20.0677L104.951 20.0703L108.465 21.5456L108.513 21.5657H108.631L108.68 21.5456L112.194 20.0703L112.201 20.0677L112.206 20.0651C113.523 19.4421 114.163 18.6248 114.163 17.5669V9.67969H113.9L113.901 9.68056ZM111.985 19.5794L108.573 21.0127L105.16 19.5794C103.68 18.8777 103.509 18.0963 103.509 17.5669V10.2152H113.639V17.5669C113.639 18.0963 113.466 18.8777 111.985 19.5794Z" fill="#484848"/>
<path fill-rule="evenodd" clip-rule="evenodd" d="M108.496 21.2783H108.655V10.1133H108.496V21.2783Z" fill="#484848"/>
<path fill-rule="evenodd" clip-rule="evenodd" d="M103.406 15.2089H113.798V15.0514H103.406V15.2089ZM113.087 14.368V10.707H109.278V14.4468H113.088V14.368H113.087ZM109.437 14.368V10.7832L109.355 10.8619H113.007L112.93 10.7832V14.368L113.007 14.2893H109.355L109.437 14.368Z" fill="#484848"/>
<path fill-rule="evenodd" clip-rule="evenodd" d="M109.359 11.0125C109.478 11.0125 109.575 10.9162 109.575 10.7937C109.577 10.7642 109.572 10.7347 109.562 10.7069C109.552 10.6791 109.537 10.6536 109.517 10.6321C109.496 10.6105 109.472 10.5934 109.445 10.5816C109.418 10.5699 109.389 10.5638 109.359 10.5638C109.329 10.5638 109.3 10.5699 109.273 10.5816C109.246 10.5934 109.222 10.6105 109.201 10.6321C109.181 10.6536 109.166 10.6791 109.156 10.7069C109.146 10.7347 109.141 10.7642 109.143 10.7937C109.143 10.9162 109.24 11.0125 109.359 11.0125ZM109.359 14.5807C109.478 14.5807 109.575 14.4845 109.575 14.3646C109.571 14.3097 109.547 14.2583 109.507 14.2207C109.467 14.1831 109.414 14.1622 109.359 14.1622C109.304 14.1622 109.251 14.1831 109.211 14.2207C109.171 14.2583 109.147 14.3097 109.143 14.3646C109.143 14.4845 109.24 14.5807 109.359 14.5807ZM113.006 14.5807C113.125 14.5807 113.222 14.4845 113.222 14.3646C113.222 14.2421 113.125 14.1458 113.006 14.1458C112.978 14.1459 112.95 14.1517 112.924 14.1628C112.897 14.1739 112.873 14.1901 112.854 14.2104C112.834 14.2308 112.818 14.2549 112.807 14.2813C112.797 14.3078 112.792 14.3361 112.792 14.3646C112.792 14.4845 112.887 14.5807 113.006 14.5807ZM113.006 11.0072C113.035 11.007 113.063 11.0011 113.089 10.99C113.116 10.9789 113.139 10.9627 113.159 10.9424C113.179 10.9221 113.195 10.898 113.206 10.8716C113.217 10.8452 113.222 10.817 113.222 10.7885C113.222 10.6677 113.125 10.5697 113.006 10.5697C112.978 10.5699 112.95 10.5758 112.924 10.5869C112.897 10.598 112.874 10.6142 112.854 10.6346C112.834 10.6549 112.818 10.6789 112.808 10.7053C112.797 10.7318 112.792 10.76 112.792 10.7885C112.792 10.9092 112.887 11.0072 113.006 11.0072ZM110.984 10.7832L111.159 10.9608L111.333 10.7841L111.158 10.6082L110.984 10.7832ZM110.984 14.3681L111.159 14.5448L111.333 14.3681L111.158 14.1913L110.984 14.3681ZM109.182 12.5761L109.357 12.7528L109.531 12.5761L109.356 12.4011L109.182 12.5761ZM112.833 12.5761L113.008 12.7528L113.182 12.5761L113.007 12.4011L112.833 12.5761ZM111.392 13.2446C111.231 13.2437 111.115 13.1956 111.05 13.4432C111.002 13.5806 111.053 13.683 110.752 13.8265L110.418 13.9831C110.219 14.0627 110.066 13.9542 110.375 13.8028C110.585 13.7005 110.731 13.6427 110.775 13.4703C110.812 13.291 110.662 13.0355 110.975 12.9777C111.228 12.9453 111.333 12.8228 111.06 12.5936C111.011 12.5463 110.927 12.6155 110.759 12.6916L110.266 12.9401C110.117 13.0136 109.947 12.8307 110.305 12.6688L110.738 12.4702C110.917 12.3652 110.891 12.2952 110.731 12.1797L110.226 11.7448C110.033 11.5725 110.15 11.4447 110.387 11.6276L110.766 11.9426C110.879 12.0301 111.153 11.8883 111.127 11.7378C111.087 11.5725 110.973 11.1918 111.248 11.1971C111.399 11.1971 111.824 11.107 111.72 11.4123L111.462 12.2427C111.399 12.6417 111.681 12.9672 111.754 12.556L111.82 11.8411C111.841 11.5821 112.391 11.52 112.39 11.9216L112.316 12.9768C112.299 13.1956 112.164 12.9576 112.068 12.7843C111.952 12.5271 112.084 12.6023 112.14 12.6715L112.183 11.9653C112.183 11.8218 112.005 11.8218 112.005 11.9653L111.957 12.6732C111.952 12.8018 111.819 12.8237 111.724 12.9952C111.676 13.0827 111.76 13.2463 111.912 13.3015C112.075 13.3942 112.222 13.3146 112.24 13.4852C112.254 13.634 112.396 13.9735 112.292 14.0671C112.204 14.1555 112.148 14.0058 112.118 13.8413C112.118 13.7197 112.029 13.5482 111.926 13.529C111.774 13.5088 111.529 13.599 111.392 13.2446ZM105.389 11.3126H107.268C107.48 11.3126 107.487 11.0825 107.268 11.0825H106.182C106.021 11.0825 106.034 10.8952 106.182 10.8952H107.28C107.49 10.8952 107.76 11.0361 107.595 11.331C107.558 11.3975 107.558 11.4255 107.644 11.464C107.644 11.464 107.666 11.4885 107.864 11.5952C108.013 11.625 108.033 11.8341 108.044 11.905C108.069 12.052 107.876 12.0441 107.83 11.9268C107.82 11.8507 107.791 11.7702 107.686 11.7343L107.357 11.6293L106.935 11.8455C106.847 11.905 106.76 11.9688 106.587 11.9688H106.076C105.915 11.9688 105.913 11.8026 106.076 11.8026H106.463C106.51 11.8026 106.636 11.7282 106.741 11.6215H105.734C105.481 11.6215 105.399 11.6696 105.11 11.7527L104.302 11.9627C104.13 12.0108 104.073 11.8533 104.256 11.7947L104.627 11.6888C104.849 11.6215 104.822 11.513 104.554 11.3765L104.179 11.184C104.025 11.114 104.092 10.9302 104.266 11.0177L104.743 11.2505C104.88 11.3178 104.977 11.226 104.927 11.0886C104.849 10.9101 104.9 10.6581 105.042 10.6581C105.185 10.6581 105.637 10.5793 105.474 10.8506C105.418 10.9696 105.174 11.3073 105.389 11.3126ZM105.389 12.7327H107.268C107.48 12.7327 107.487 12.5026 107.268 12.5026H106.182C106.021 12.5026 106.034 12.3162 106.182 12.3162H107.28C107.49 12.3162 107.76 12.4562 107.595 12.7476C107.558 12.8176 107.558 12.8456 107.644 12.8841C107.644 12.8841 107.666 12.9086 107.864 13.0153C108.013 13.0442 108.033 13.2533 108.044 13.3233C108.069 13.4721 107.876 13.4633 107.83 13.347C107.82 13.2691 107.791 13.1912 107.686 13.151L107.357 13.0486L106.935 13.2638C106.847 13.3233 106.76 13.3881 106.587 13.3881H106.076C105.915 13.3881 105.913 13.2218 106.076 13.2218H106.463C106.51 13.2218 106.636 13.1466 106.741 13.0407H105.734C105.481 13.0407 105.399 13.088 105.11 13.172L104.302 13.3811C104.13 13.4301 104.073 13.2717 104.256 13.2148L104.627 13.109C104.849 13.0407 104.822 12.9313 104.554 12.7966L104.179 12.6041C104.025 12.5341 104.092 12.3486 104.266 12.4378L104.743 12.6706C104.88 12.7397 104.977 12.6426 104.927 12.5078C104.849 12.3302 104.9 12.0765 105.042 12.0765C105.185 12.0765 105.637 11.9986 105.474 12.2698C105.418 12.388 105.174 12.7275 105.389 12.7336V12.7327ZM105.389 14.152H107.268C107.48 14.152 107.487 13.9201 107.268 13.9201H106.182C106.021 13.9201 106.034 13.7337 106.182 13.7337H107.28C107.49 13.7337 107.76 13.8755 107.595 14.1677C107.558 14.236 107.558 14.264 107.644 14.3025C107.644 14.3025 107.666 14.327 107.864 14.4337C108.013 14.4635 108.033 14.6717 108.044 14.7435C108.069 14.8905 107.876 14.8808 107.83 14.7653C107.82 14.6875 107.791 14.6087 107.686 14.5711L107.357 14.4687L106.935 14.684C106.847 14.7435 106.76 14.8073 106.587 14.8073H106.076C105.915 14.8073 105.913 14.6411 106.076 14.6411H106.463C106.51 14.6411 106.636 14.5667 106.741 14.4608H105.734C105.481 14.4608 105.399 14.5081 105.11 14.5912L104.302 14.8012C104.13 14.8485 104.073 14.6918 104.256 14.6332L104.627 14.5273C104.849 14.4608 104.822 14.3523 104.554 14.2158L104.179 14.0207C104.025 13.9525 104.092 13.7687 104.266 13.8562L104.743 14.089C104.88 14.1572 104.977 14.0627 104.927 13.9253C104.849 13.7486 104.9 13.4966 105.042 13.4966C105.185 13.4966 105.637 13.4161 105.474 13.6891C105.418 13.8072 105.174 14.1458 105.389 14.1511V14.152ZM110.414 16.0393H112.294C112.507 16.0393 112.515 15.8083 112.294 15.8083H111.209C111.047 15.8083 111.06 15.6202 111.209 15.6202H112.305C112.516 15.6202 112.787 15.7628 112.622 16.0542C112.584 16.1242 112.584 16.1522 112.671 16.189C112.671 16.189 112.692 16.2152 112.891 16.3211C113.038 16.3508 113.057 16.5573 113.071 16.63C113.096 16.7787 112.902 16.77 112.854 16.6518C112.845 16.5757 112.817 16.4978 112.712 16.4593L112.383 16.3552L111.959 16.5705C111.872 16.63 111.786 16.6947 111.613 16.6947H111.102C110.941 16.6947 110.939 16.5267 111.102 16.5267H111.489C111.537 16.5267 111.661 16.4532 111.768 16.3456H110.76C110.507 16.3456 110.427 16.3963 110.136 16.4777L109.328 16.6877C109.156 16.7367 109.099 16.5801 109.282 16.5215L109.655 16.4138C109.876 16.3456 109.848 16.2388 109.581 16.1032L109.205 15.909C109.051 15.8407 109.12 15.657 109.292 15.7427L109.77 15.9772C109.905 16.0463 110.001 15.9492 109.954 15.8145C109.876 15.6368 109.928 15.3831 110.068 15.3831C110.211 15.3831 110.664 15.3052 110.5 15.5765C110.443 15.6963 110.202 16.0341 110.414 16.0402V16.0393ZM110.414 17.512H112.294C112.507 17.512 112.515 17.2801 112.294 17.2801H111.209C111.047 17.2801 111.06 17.0937 111.209 17.0937H112.305C112.516 17.0937 112.787 17.2346 112.622 17.5277C112.584 17.596 112.584 17.624 112.671 17.6633C112.671 17.6633 112.692 17.687 112.891 17.7928C113.038 17.8235 113.057 18.0326 113.071 18.1052C113.096 18.2522 112.902 18.2426 112.854 18.1253C112.845 18.0492 112.817 17.9705 112.712 17.9302L112.383 17.8287L111.959 18.044C111.872 18.1052 111.786 18.1673 111.613 18.1673H111.102C110.941 18.1673 110.939 18.0002 111.102 18.0002H111.489C111.537 18.0002 111.661 17.9267 111.768 17.82H110.76C110.507 17.82 110.427 17.869 110.136 17.9512L109.328 18.1612C109.156 18.2093 109.099 18.0518 109.282 17.9932L109.655 17.8873C109.876 17.82 109.848 17.7115 109.581 17.575L109.205 17.3807C109.051 17.3125 109.12 17.1305 109.292 17.2162L109.77 17.4498C109.905 17.5163 110.001 17.4236 109.954 17.2853C109.876 17.1086 109.928 16.8566 110.068 16.8566C110.211 16.8566 110.664 16.7778 110.5 17.0491C110.443 17.1672 110.202 17.5041 110.414 17.5111V17.512ZM111.977 18.6057H111.207C111.06 18.6057 111.048 18.7921 111.207 18.7921H111.964C112.185 18.7921 112.179 19.0231 111.964 19.0231H110.416C110.199 19.017 110.444 18.6792 110.499 18.5593C110.662 18.2898 110.21 18.366 110.07 18.366C109.927 18.366 109.876 18.6197 109.954 18.7991C110.002 18.9338 109.905 19.0301 109.772 18.9592L109.29 18.7265C109.118 18.639 109.051 18.8227 109.203 18.8927L109.58 19.0878C109.848 19.2235 109.863 19.248 109.656 19.451L109.28 19.8692C109.079 20.0617 109.119 20.1483 109.292 20.0993L110.135 19.4632C110.257 19.3495 110.679 19.3477 110.679 19.3556L110.597 19.5612L110.327 19.7668C110.274 19.8053 110.199 19.8806 110.237 19.9357C110.256 19.9606 110.285 19.9768 110.316 19.9811C110.347 19.9853 110.379 19.9772 110.404 19.9585L110.724 19.7161C110.856 19.5941 110.981 19.4666 111.102 19.3337H111.483V19.3381L111.437 19.4238L111.214 19.5857C111.202 19.5951 111.191 19.607 111.183 19.6206C111.175 19.6343 111.169 19.6494 111.167 19.6652C111.165 19.6809 111.166 19.6969 111.17 19.7123C111.174 19.7276 111.181 19.742 111.191 19.7546C111.231 19.8071 111.305 19.7747 111.357 19.7353L111.673 19.4947C111.688 19.4838 111.701 19.4693 111.709 19.4525C111.717 19.4358 111.721 19.4172 111.721 19.3985L111.765 19.3337H111.941C112.404 19.3337 112.641 18.6057 111.976 18.6057H111.977ZM192.193 2.1452C192.538 2.1452 192.694 1.60095 192.788 1.36995H193.821C193.788 1.77508 193.788 2.46545 193.788 3.19083C193.788 3.77008 193.913 6.66983 193.946 7.36458H192.913L192.193 2.1452ZM22.8578 20.5622L24.9053 20.5053C24.9622 18.968 24.9946 18.5926 24.9946 14.8791C24.9946 5.07995 24.9946 4.0072 24.9053 2.06295L22.8578 2.00608V1.07858C23.6191 1.07858 24.8178 1.13633 26.9808 1.13633C29.1447 1.13633 30.3452 1.07858 31.0758 1.07858V2.00608L28.8533 2.06295C28.7938 3.88995 28.7938 8.47145 28.7938 10.5898H39.5904C39.5904 8.47145 39.5904 3.88995 39.5012 2.06295L37.2489 2.00608V1.04883C38.0102 1.10745 39.2089 1.13633 41.3728 1.13633C43.5656 1.13633 44.7381 1.07858 45.4958 1.07858V2.00608L43.4221 2.06295C43.3897 3.63008 43.3897 4.0072 43.3897 7.6892C43.3897 17.4892 43.3897 18.5926 43.4509 20.5053L45.4958 20.5622V21.4923C44.7381 21.4923 43.5384 21.4355 41.3728 21.4355C39.2089 21.4355 38.0102 21.4923 37.2489 21.4923V20.5622L39.5012 20.5053C39.5904 18.6783 39.5904 13.6331 39.5904 11.4578H28.7929C28.7929 17.9538 28.7929 18.6783 28.8524 20.5053L31.0749 20.5622V21.5212C30.3452 21.4626 29.1447 21.4355 26.9808 21.4355C24.8169 21.4355 23.6199 21.4923 22.8578 21.4923V20.5622ZM12.9878 1.88008C12.9598 3.4437 12.9309 3.91008 12.9309 7.70495C12.9309 17.5076 12.9309 18.5812 12.9878 20.4948L15.2112 20.5535V21.4792C14.4499 21.4792 13.0114 21.4223 10.7294 21.4223C8.47719 21.4223 7.30819 21.4792 6.54956 21.4792V20.5535L8.77031 20.4948C8.82894 18.9575 8.85956 18.5803 8.85956 14.8686C8.85956 5.01083 8.85956 3.93808 8.77031 1.88008L5.97031 1.87833C3.54219 1.87833 2.98656 2.11108 2.84044 2.37095C2.66544 2.72008 2.51931 5.38795 2.49044 5.96808H1.11669L0.851562 1.0672C4.12669 1.09695 7.25656 1.12408 10.7356 1.12408H11.0208C14.5033 1.12408 17.6297 1.09695 20.9066 1.0672L20.6423 5.96808H19.2686C19.2388 5.38795 19.0927 2.72008 18.9168 2.37183C18.7707 2.11108 18.2151 1.88008 15.7887 1.88008H12.9869H12.9878Z" fill="#484848"/>
<path fill-rule="evenodd" clip-rule="evenodd" d="M192.912 7.36625C192.097 4.6975 189.97 1.52125 185.464 1.52125C180.707 1.52125 177.361 5.58125 177.361 11.0036C177.361 15.2955 179.612 20.8911 185.528 20.8911C187.403 20.8911 189.28 20.3399 190.471 19.0055C190.565 17.7298 190.503 14.4503 190.503 13.8115L187.529 13.696L187.499 12.7974C188.281 12.7974 189.157 12.8271 190.189 12.8271C192.818 12.8271 194.357 12.7685 196.046 12.7099V13.6374C194.451 13.7249 194.326 13.8701 194.326 14.4214V18.7736C191.26 20.6584 188.03 21.9341 184.306 21.9341C178.862 21.9341 173.167 18.2521 173.167 11.2941C173.167 5.20413 177.704 0.594625 184.554 0.594625C188.812 0.594625 191.723 2.146 192.193 2.146L192.912 7.36625ZM64.4922 16.1565L63.0869 20.6225H56.1805C53.5494 20.6225 53.3735 20.4475 53.2869 19.3188C53.2283 18.3913 53.2283 12.5909 53.2283 11.113H53.8075C54.7158 11.113 58.018 11.113 58.3689 11.3729C58.7452 11.6669 58.7513 12.1604 58.9114 14.1379H60.2887C60.2537 12.5874 60.1837 11.3991 60.1837 10.098C60.1837 9.14163 60.223 8.20625 60.2519 7.30675H58.9587C58.8528 9.16875 58.6244 9.916 58.2254 10.1269C57.9017 10.3001 55.8839 10.3588 53.8075 10.3588H53.2283V1.8905H58.9403C59.7619 1.8905 61.777 1.8905 62.5383 2.23788C63.2409 2.61588 63.2995 3.2835 63.4439 5.429H64.8492V1.08025C63.5612 1.08025 54.8374 1.16513 53.4313 1.16513C50.2174 1.16513 48.6092 1.10738 46.9423 1.08025V2.006L49.3398 2.09438C49.4264 4.00625 49.4264 5.08075 49.4264 14.8816C49.4264 18.5934 49.3975 18.9679 49.3389 20.5061L46.9414 20.563V21.4914C48.3152 21.4914 54.1059 21.4345 55.9189 21.4345H65.3689L65.7784 16.1574H64.4922V16.1565ZM214.185 16.1565L212.781 20.6216H205.876C203.242 20.6216 203.067 20.4466 202.981 19.3179C202.922 18.3904 202.922 12.59 202.922 11.1121H203.501C204.407 11.1121 207.712 11.1121 208.062 11.372C208.438 11.666 208.445 12.1595 208.605 14.137H209.981C209.946 12.5865 209.873 11.3983 209.873 10.0971C209.873 9.14075 209.916 8.20538 209.945 7.30588H208.65C208.545 9.16788 208.317 9.91513 207.917 10.126C207.594 10.2993 205.577 10.3579 203.501 10.3579H202.922V1.8905H208.635C209.453 1.8905 211.469 1.8905 212.232 2.23788C212.933 2.61588 212.993 3.2835 213.136 5.429H214.542V1.08025C213.256 1.08025 204.53 1.16513 203.125 1.16513C199.911 1.16513 198.301 1.10738 196.634 1.08025V2.006L199.031 2.09438C199.119 4.00625 199.119 5.08075 199.119 14.8816C199.119 18.5934 199.091 18.9679 199.031 20.5061L196.634 20.563V21.4914C198.008 21.4914 203.799 21.4345 205.611 21.4345H215.063L215.472 16.1574H214.185V16.1565ZM164.831 13.4326C164.831 13.5184 164.674 13.6076 164.457 13.6339H158.181C157.743 13.6339 157.618 13.5499 157.618 13.4615C157.618 13.3758 157.681 13.2585 157.743 13.0555L161.16 4.74825C161.255 4.575 161.286 4.42975 161.349 4.42975C161.41 4.42975 161.505 4.575 161.537 4.69137L161.554 4.73338L164.706 13.0555C164.8 13.2874 164.831 13.346 164.831 13.4326ZM172.403 19.8752C171.931 19.0383 171.503 18.1776 171.12 17.2966L163.83 0.59375H161.978L157.629 11.12C157.034 12.569 154.156 19.0659 153.78 19.7335C153.324 20.5368 152.989 20.4291 151.267 20.5735V21.501C151.893 21.4704 153.656 21.4118 154.751 21.4118C155.72 21.4118 156.691 21.4704 157.566 21.5001V20.5726C155.221 20.5446 155 20.4291 155 20.108C155 19.9916 155.126 19.6443 155.282 19.2391L156.998 14.9709C157.186 14.5351 157.28 14.4494 157.687 14.4494H164.79C165.354 14.4494 165.417 14.4494 165.604 14.8825L167.49 19.5008C167.615 19.7904 167.71 20.0494 167.71 20.2235C167.71 20.3705 167.491 20.5149 164.894 20.5735V21.501C167.333 21.4433 168.399 21.4118 169.556 21.4118C171.246 21.4118 173.124 21.4433 174.503 21.5001V20.514C173.289 20.514 172.685 20.3696 172.403 19.8744V19.8752ZM105.936 15.6971C105.741 15.6971 105.575 15.7146 105.51 15.929C105.437 16.1451 105.235 16.4024 105.056 16.4759C105.011 16.3662 105.004 16.2443 105.037 16.1302C105.098 15.8529 104.909 15.7715 104.757 15.7715C104.631 15.7715 104.573 15.7759 104.495 15.894C104.416 16.0104 104.282 16.2615 104.516 16.363C104.791 16.4908 104.528 16.8119 104.436 16.9624C104.154 17.3622 104.663 18.5059 105.303 18.827L107.871 19.9977V15.6971H105.937H105.936ZM105.98 18.9373C105.686 18.7824 105.107 18.2198 105.007 17.1645C105.007 17.1383 105.007 17.1146 105.01 17.0884L107.64 19.6976L105.98 18.9373ZM107.697 19.429L105.085 16.8565C105.111 16.8167 105.145 16.783 105.185 16.7575C105.225 16.732 105.27 16.7153 105.317 16.7086C105.348 16.6946 105.377 16.6764 105.404 16.6544L107.696 18.9294V19.429H107.697ZM107.697 18.6056L105.556 16.4951C105.629 16.3997 105.706 16.3 105.809 16.2449L107.697 18.1095V18.6056ZM107.697 17.7875L106.056 16.1792C106.187 16.1591 106.323 16.1504 106.487 16.1302L107.697 17.3325V17.7875ZM107.697 17.0096L106.762 16.0909C107.003 16.0427 107.302 15.9596 107.697 15.7916V17.0096Z" fill="#484848"/>
<path fill-rule="evenodd" clip-rule="evenodd" d="M148.212 18.6879H141.281V17.777C140.757 17.6458 139.539 17.4541 138.323 17.4183C138.223 17.2896 137.619 16.8075 137.369 16.6036C136.969 16.3744 135.787 16.2239 135.236 16.5275C134.582 16.8836 133.841 17.1435 133.189 17.1943C133.239 17.042 133.276 16.2755 133.201 16.1215C133.026 15.9176 132.85 15.6639 132.824 15.4338L133.077 15.2308C134.256 16.426 134.356 15.9771 134.693 15.8809C134.317 15.6534 134.289 15.4828 134.289 15.4828C134.853 15.5965 135.56 15.46 135.837 15.2728C135.197 15.0811 135.364 14.7819 135.364 14.7819C136.042 14.858 136.635 14.4879 136.749 14.3138C136.505 14.1678 136.312 13.9511 136.194 13.6925C137.327 13.1973 137.068 13.0704 137.374 12.9085C136.924 12.8718 136.729 12.4404 136.729 12.4404C137.103 12.2916 137.513 12.0598 137.86 11.7605C137.655 11.7457 137.458 11.6729 137.292 11.5508C137.127 11.4286 136.999 11.2619 136.924 11.0701C137.977 10.7656 138.009 10.2861 138.241 9.89939C137.414 10.0516 137.166 9.62989 137.166 9.62989C138.183 9.09789 138.206 8.64814 138.117 8.32002C137.327 8.70152 136.92 8.34102 136.671 8.18002C137.009 7.83702 137.193 7.22802 137.201 6.92614C136.635 7.19302 136.011 7.03202 135.711 6.89114C135.974 6.16752 135.767 5.71602 135.641 5.38352C135.302 5.80177 134.854 5.84552 134.508 5.90239C134.658 4.94864 134.429 4.71939 134.183 4.50414C133.922 4.99939 133.591 5.00814 133.064 5.03089C132.725 3.61952 132.313 3.82077 132 3.79102C132 4.17164 131.68 4.37989 131.389 4.58027C130.41 5.03789 130.391 5.65039 130.299 6.19027L126.837 5.07727C126.375 4.91102 126.073 5.10177 126.694 5.38352L129.918 6.80977C129.397 6.87889 129.16 7.46602 128.729 7.58239C128.058 7.82739 127.355 7.92539 126.751 8.27802C126.267 8.51077 126.624 9.16177 126.3 9.49077C126.278 9.70077 126.221 9.97027 126.405 10.1103C126.555 10.2153 126.786 10.2153 126.959 10.2275C126.97 10.322 126.925 10.3675 126.892 10.4261C126.844 10.4848 126.799 10.5898 126.867 10.6484C127.166 11.0133 127.632 11.3046 128.173 11.1296C128.427 11.0229 128.473 10.742 128.706 10.5784C129.331 10.2153 129.907 10.7665 130.392 11.0229C130.383 11.2924 130.08 11.386 130.08 11.6546C130.08 11.6721 130.084 11.6809 130.084 11.6949C130.326 11.6625 130.58 11.6074 130.781 11.5181C131.176 11.3361 131.862 10.7306 132.195 10.392C132.492 10.0578 132.544 9.59489 132.335 9.23264C132.222 9.07226 132.053 8.95965 131.862 8.91677C131.791 9.00952 131.895 9.12939 131.919 9.23177C131.931 9.71302 131.632 10.1811 131.259 10.4261C130.579 10.7079 130.138 10.098 129.595 9.86614C129.028 9.83027 128.416 9.84077 128.173 10.392C128.024 10.462 128.058 10.5898 127.884 10.6038C127.758 10.6143 127.643 10.6038 127.561 10.4725C127.503 10.2511 127.793 10.3343 127.884 10.2153C128.036 10.1811 128.081 10.0166 128.21 9.94752C128.266 9.70077 128 9.69027 127.874 9.58352C127.618 9.51352 127.296 9.54852 127.099 9.69027C127.007 9.71302 126.925 9.65527 126.892 9.59402C126.844 9.47764 126.949 9.40764 126.97 9.30352C127.156 9.25539 127.387 9.33852 127.515 9.16177C127.55 9.09718 127.568 9.02504 127.568 8.95177C127.568 8.87849 127.55 8.80635 127.515 8.74177C127.481 8.71509 127.44 8.6987 127.397 8.69452C127.354 8.69033 127.31 8.69853 127.272 8.71814C127.226 8.79952 127.191 8.82314 127.11 8.82314C127.04 8.76452 127.11 8.69364 127.11 8.61139C127.308 8.42502 127.597 8.48364 127.828 8.36639C128.277 8.15552 128.856 8.22639 129.271 7.91052C129.401 7.88689 129.363 8.05227 129.423 8.10914C129.387 8.37777 129.099 8.43727 128.913 8.54227C129.122 8.61227 129.331 8.48364 129.572 8.53002C130.138 8.69364 130.752 8.55452 131.226 8.28502C131.191 8.12139 130.995 8.03827 130.912 7.89827C130.532 7.68827 130.047 7.67602 129.608 7.66377C129.874 7.22014 130.509 7.37239 130.982 7.26652L131.446 7.38377C131.47 7.16152 131.446 6.87977 131.527 6.65752C132.012 6.70389 131.953 7.24377 132.069 7.58239C132.287 7.60514 132.556 7.57014 132.762 7.71189C133.849 8.47139 134.394 9.85214 134.242 11.2688C134.069 11.9714 133.975 12.7081 133.526 13.2708C133.469 13.4808 133.932 13.5753 133.664 13.7284L133.652 13.7459L133.723 13.9051L133.724 13.9034L133.902 13.6435L134.077 13.9025C134.113 13.955 134.142 14.0075 134.167 14.0565L134.18 14.0355C134.332 14.3409 134.332 14.5194 134.683 14.7478C134.569 14.7941 134.33 14.9858 133.909 14.6953C133.678 14.571 133.579 14.6156 133.579 14.6156L133.077 14.8746L129.886 12.9619C129.773 13.02 129.656 13.0692 129.536 13.1089C129.219 13.2594 129.069 13.1211 128.478 13.1001C128.48 13.122 128.486 13.1439 128.486 13.1658C128.478 13.2563 128.434 13.3399 128.365 13.3985C128.317 13.4393 128.258 13.4654 128.196 13.4738L128.187 13.4816L128.117 13.4764C127.743 13.4414 126.717 13.5333 126.35 13.6339C126.277 13.6538 126.199 13.6485 126.13 13.6188C126.06 13.5891 126.003 13.5367 125.967 13.4703C125.993 13.5324 126.002 13.6006 125.991 13.6671C125.982 13.7262 125.957 13.7816 125.918 13.8273V13.8421L125.855 13.8876C125.763 13.9524 125.622 14.1038 125.477 14.2683C125.528 14.2595 125.576 14.2551 125.622 14.2525C127.354 14.0994 128.858 13.7949 129.273 13.4519C130.554 13.6426 132.021 14.6331 132.247 14.8624C132.247 15.3594 132.361 15.9299 132.549 16.1215C133 16.9589 132.474 17.7604 132.021 17.9896L131.645 18.1209L131.533 18.0273L132.076 17.189C132.076 16.8443 132.021 16.1959 131.985 16.0821L131.944 17.0359C131.833 17.5303 131.457 17.8356 131.345 17.9896C131.193 17.875 130.628 17.5696 130.477 17.4541C130.514 17.3028 130.554 16.8075 130.554 16.5406L130.469 16.5284C130.374 16.6631 130.272 17.084 130.138 17.189C129.978 17.3684 129.749 17.3815 129.611 17.574C129.646 17.7018 129.851 17.6519 129.956 17.7403C130.724 18.1148 131.07 18.3913 131.793 18.8716C132.474 19.324 132.896 19.5016 133.386 19.9006C133.558 20.003 133.49 20.248 133.512 20.4396C133.239 20.8903 132.619 20.7354 132.136 20.7634C131.519 20.7634 130.967 20.6715 130.393 20.8526C129.946 21.0705 129.259 21.3286 128.811 20.9165C128.594 20.7494 128.331 20.633 128.091 20.4921C128.111 20.2865 128.364 20.2734 128.502 20.1701C128.765 20.003 129.054 20.0809 129.293 20.248C129.384 20.3119 129.476 20.2218 129.556 20.1701C129.57 20.0809 129.57 19.9146 129.696 19.9146C130.164 20.1701 130.749 20.248 131.31 20.1448C131.404 20.0923 131.519 20.1063 131.621 20.0546C131.323 19.8236 130.886 19.7344 130.53 19.5261C129.41 19.2566 128.434 18.9556 127.264 18.8296C127.045 18.6721 126.917 18.0596 126.885 17.8181C126.9 17.378 126.888 17.1383 127.011 16.7314C127.051 16.5406 127.277 16.4628 127.467 16.3114L127.315 16.2361C127.089 16.2361 126.562 16.6168 126.336 16.9204C126.336 16.9204 126.282 17.2336 126.285 17.5933C125.535 17.5031 124.206 17.5154 123.135 17.5941C123.15 17.5198 123.268 16.7979 123.382 16.5424C123.402 16.4967 123.404 16.4448 123.387 16.3978C123.37 16.3507 123.335 16.3122 123.29 16.2904C123.244 16.2696 123.192 16.2678 123.145 16.2853C123.098 16.3029 123.06 16.3384 123.039 16.384C122.84 16.8303 122.802 17.0499 122.727 17.6204C122.725 17.6344 122.725 17.6475 122.725 17.6615L122.479 17.686C122.502 17.5819 122.535 17.4638 122.559 17.3623L122.603 17.1969C122.615 17.148 122.607 17.0964 122.581 17.0532C122.555 17.01 122.513 16.9787 122.465 16.9659C122.416 16.9542 122.365 16.9621 122.323 16.9878C122.28 17.0136 122.249 17.055 122.237 17.1033L122.194 17.266C122.159 17.4095 122.112 17.5836 122.086 17.7236V17.7324C120.85 17.8768 119.68 18.0824 118.919 18.2871C118.928 18.162 118.928 18.0448 118.918 17.9363C119.75 17.8505 121.316 17.4813 121.631 17.3413C121.355 17.4121 119.68 17.7 118.896 17.7525C118.875 17.6037 118.834 17.4582 118.777 17.3194C119.713 17.231 121.451 16.8661 121.801 16.7261C121.487 16.7961 119.547 17.0945 118.69 17.14C118.617 17.0073 118.527 16.8849 118.421 16.776C118.346 16.7024 118.264 16.6351 118.178 16.5748C119.254 16.5048 120.99 16.2519 121.358 16.1434C121.01 16.1959 118.874 16.4015 117.908 16.4181L117.855 16.3936C117.949 16.258 118.02 16.1224 118.075 16.0174L118.092 15.9798L118.116 15.9299C118.86 15.8835 119.645 15.7916 119.862 15.7251C119.683 15.747 118.91 15.7811 118.175 15.789C118.301 15.4609 118.322 15.0951 118.329 14.7329C118.567 14.9166 118.839 15.0068 119.153 15.0068H119.196L119.238 14.9998C119.701 14.9149 120.043 14.8598 120.255 14.536L120.264 14.5185L120.273 14.5028C121.377 14.7871 122.282 14.8335 123.026 14.7775C123.077 14.6794 123.131 14.5831 123.188 14.4888L123.198 14.4756L123.207 14.466C123.254 14.402 123.323 14.3568 123.401 14.3383C123.468 14.3227 123.539 14.3288 123.602 14.3558C123.56 14.3143 123.529 14.2628 123.513 14.2061C123.506 14.1825 123.509 14.1598 123.506 14.1361C122.824 14.2481 121.931 14.2385 120.427 13.9086C120.509 13.4099 120.331 12.891 120.065 12.5366L120.05 12.5165L120.032 12.4955C120.009 12.4724 119.989 12.4468 119.971 12.4194C120.645 11.5225 122.1 12.3459 123.057 12.5585C125.601 13.0511 126.432 10.5731 125.588 8.99989C124.667 7.47477 123.062 7.86589 121.417 8.19227C119.234 8.55452 119.834 7.05127 120.257 6.95327C119.126 7.01014 118.957 8.03739 119.023 9.12502C118.252 8.85902 118.335 8.20977 118.418 7.99452C117.288 9.82239 119.29 10.5801 119.852 10.8855C119.852 10.8855 119.143 11.2215 118.989 11.3405C118.538 10.9118 118.014 10.4725 117.662 10.3605L117.644 10.3544C117.382 10.2789 117.11 10.2412 116.837 10.2424C116.843 9.84911 116.708 9.46666 116.456 9.16439L116.452 9.16002L116.446 9.15477L115.127 7.65589C114.399 6.81852 112.878 7.09589 112.85 8.24127C112.85 8.30077 112.859 8.38389 112.871 8.47752C112.642 8.37652 112.409 8.28629 112.171 8.20714L112.148 8.19839C112.077 8.17492 112.005 8.15246 111.933 8.13102C111.923 8.12723 111.913 8.1243 111.903 8.12227C111.826 8.09864 111.75 8.07502 111.676 8.05489C111.671 8.05489 111.665 8.05227 111.658 8.05227C111.489 8.00533 111.319 7.96302 111.147 7.92539C111.142 7.92277 111.135 7.92277 111.13 7.92014L110.897 7.87377L110.84 7.86239C110.774 7.85014 110.708 7.83789 110.643 7.82739C110.619 7.82477 110.597 7.81864 110.576 7.81689L110.366 7.78539C110.351 7.78277 110.331 7.77839 110.311 7.77577C110.137 7.75214 109.96 7.73202 109.777 7.71452L109.707 7.71014C109.642 7.70314 109.574 7.69789 109.508 7.69264C109.477 7.69152 109.446 7.68977 109.415 7.68739C109.354 7.68302 109.292 7.68039 109.232 7.67777C109.107 7.67042 108.981 7.66575 108.856 7.66377C108.764 7.66114 108.669 7.66114 108.576 7.66114C106.955 7.66114 105.496 7.94464 104.282 8.47839C104.295 8.38389 104.301 8.30077 104.301 8.24127C104.276 7.09589 102.754 6.81852 102.025 7.65589L100.703 9.15477L100.699 9.16002L100.696 9.16439C100.446 9.46742 100.311 9.84929 100.315 10.2424C100.042 10.2412 99.7698 10.2789 99.5073 10.3544L99.4985 10.357L99.4924 10.3596C99.2133 10.448 98.8335 10.7368 98.4652 11.064C98.2263 10.8706 97.4397 10.7053 97.4397 10.7053C98.6507 10.5705 99.7864 8.61839 97.6068 7.27527C94.8392 6.13252 95.8524 9.48552 96.8902 8.07502C96.1377 8.45652 96.1027 7.54302 96.7082 7.54302C97.367 7.54302 97.3723 8.65777 96.6102 8.62364C95.8489 8.58952 95.6547 8.24914 94.8252 8.09864C89.7484 7.17289 91.1274 14.1851 94.9162 12.4701C95.519 12.198 96.4264 11.4936 97.4362 11.7483C96.6732 12.4553 96.3669 13.3101 96.4719 13.7809C95.1218 13.9821 92.2509 13.2095 91.0399 12.3371L91.6629 12.2698C91.2814 12.0685 91.0749 11.0255 91.0749 11.0255C90.9367 10.623 90.4948 10.1864 90.4948 10.1864C90.5989 10.119 90.8745 10.2196 90.8745 10.2196C90.8745 10.2196 90.9104 10.4909 90.8745 10.119C90.8404 9.75152 90.4633 8.94214 90.255 8.87652C90.4887 8.53264 90.5657 8.26402 90.5657 8.26402C89.772 8.49064 89.7362 7.96127 89.0965 7.84664C89.2558 7.73464 89.3039 7.38902 89.3398 7.16152C89.1517 7.35052 88.5497 7.00927 87.987 7.31377C87.721 7.46689 87.7604 7.27439 87.3072 7.73202H83.563C83.1107 7.27439 83.1474 7.46689 82.8867 7.31377C82.3214 7.00927 81.7168 7.35052 81.5287 7.16152C81.5654 7.38902 81.8568 7.73202 82.0152 7.84489C81.7142 7.91577 81.4727 7.98489 81.3204 8.16339C81.1699 8.33927 80.5968 8.37514 80.5968 8.37514C80.791 8.60264 81.0955 8.88702 81.0955 8.88702C80.6895 9.18627 80.6895 9.75327 80.6292 10.07C80.5688 10.3868 80.2695 10.8811 80.2695 10.8811C80.4498 10.9179 80.6895 10.9538 80.8698 10.8811C80.6292 11.2355 79.9904 12.3669 79.811 13.2489C79.811 13.2489 80.2022 13.1561 80.3824 13.0485C80.4113 14.0381 80.5014 15.0873 80.7412 15.439L80.9835 14.9788C81.253 15.3331 80.5469 16.4295 79.8837 16.4628C79.8837 16.4628 78.2649 16.5503 77.963 16.5503C77.662 16.5503 77.4214 16.7288 77.0898 16.9379C76.7582 17.1505 76.003 17.2975 75.7957 17.3369C75.6145 17.3719 75.1263 17.4883 75.1175 18.6879H69.7695L73.0814 19.9733L69.7695 21.2814H81.8174V20.4388C83.101 20.4781 84.7338 20.7301 87.0674 21.3208C88.7255 21.7294 90.1754 21.7889 91.7749 21.7889C93.5652 21.7889 94.6957 20.9401 94.7202 20.9261V20.4151C95.9478 20.5473 97.2524 20.8159 98.2341 21.0801C98.8957 21.2726 100.241 21.6226 100.767 21.6226C101.057 21.6506 101.354 21.5771 101.626 21.4056L101.642 21.3943L101.659 21.382C101.893 21.2105 102.101 20.8553 102.151 20.5691C102.61 20.5691 103.608 21.2061 105.141 21.5701C106.177 21.9516 107.337 22.1511 108.577 22.1511C108.71 22.1511 108.842 22.1485 108.973 22.1441L108.998 22.1433C110.028 22.1125 111.046 21.919 112.015 21.5701C113.546 21.2061 114.543 20.5691 115.003 20.5691C115.053 20.8553 115.263 21.2105 115.499 21.3829L115.512 21.3943L115.528 21.4056C115.801 21.5771 116.096 21.6506 116.388 21.6235C116.911 21.6235 118.259 21.2735 118.92 21.0801C119.904 20.8159 122.707 20.5473 123.935 20.4151V20.9261C123.958 20.9393 125.088 21.536 126.879 21.536C127.604 21.536 127.704 21.0268 128.759 21.5868C129.311 21.8396 130.266 21.5868 130.867 21.382C131.37 21.179 133.227 21.382 133.227 21.382C133.63 21.4345 133.99 21.0976 134.13 20.4676C134.494 20.4029 136.195 20.115 136.441 20.0984V21.2814H148.213L144.9 19.9733L148.213 18.687L148.212 18.6879ZM130.067 7.95514C130.129 7.95514 130.188 7.97985 130.232 8.02382C130.276 8.0678 130.301 8.12745 130.301 8.18964C130.301 8.25183 130.276 8.31148 130.232 8.35546C130.188 8.39943 130.129 8.42414 130.067 8.42414C130.036 8.42391 130.006 8.41761 129.977 8.40559C129.949 8.39357 129.923 8.37608 129.902 8.35412C129.88 8.33216 129.864 8.30616 129.852 8.27763C129.841 8.2491 129.835 8.2186 129.836 8.18789C129.836 8.06014 129.939 7.95514 130.067 7.95514ZM135.986 13.038C135.711 12.8333 135.032 12.4999 134.763 12.3923C134.812 12.2916 134.848 12.0396 134.877 11.9836C135.526 11.8113 136.094 12.8088 136.227 12.9654C136.227 12.9654 136.088 13.0975 135.986 13.038ZM134.925 11.3466C134.952 11.2215 135 10.9503 134.983 10.8593C136.088 10.7315 136.389 11.4691 136.466 11.9005C136.112 11.596 135.236 11.3405 134.925 11.3466ZM136.165 10.5548C135.436 10.2485 135.27 10.3106 134.947 10.3518C134.947 10.3518 134.964 9.97989 134.922 9.84252C135.902 9.43564 136.794 10.1488 137.092 10.3771C136.991 10.4778 136.666 10.707 136.165 10.5548ZM136.877 8.99814C136.502 9.25277 136.212 9.21339 135.769 9.19327C135.018 9.14252 135.115 9.26677 134.815 9.34202C134.815 9.34202 134.8 9.13027 134.624 8.87564C135.528 8.31739 136.29 8.62189 136.877 8.99814ZM131.791 5.93214L131.551 5.85777C131.461 5.77552 131.363 5.71427 131.271 5.83852C131.271 5.83852 131.247 5.94177 130.995 6.04852C130.918 5.48939 131.394 5.23214 131.872 4.90227C131.997 4.81739 132.171 4.68264 132.197 4.53039C132.171 4.67914 132.871 5.24614 131.791 5.93214ZM132.623 6.77477C132.273 6.41864 132.246 5.98902 132.952 5.73527C133.503 5.52089 133.861 5.55764 133.861 5.55764C133.861 6.25939 132.648 6.57877 132.623 6.77477H132.623ZM133.596 7.53602C133.519 7.28227 133.309 7.31377 133.377 7.09589C133.778 6.48602 134.84 6.47727 135.121 6.36527C135.234 6.57527 135.084 6.99527 134.762 7.05564C134.437 7.10727 134.356 7.04602 133.998 7.32339L133.596 7.53602ZM134.054 7.96127C134.882 7.24902 135.774 7.62002 136.08 7.68827C136.08 7.68827 136.012 8.03739 135.509 8.06014C135.185 8.08377 134.739 8.27364 134.389 8.40139C134.389 8.40139 134.23 8.14064 134.054 7.96127ZM134.325 13.3469C134.423 13.2708 134.537 13.0441 134.59 12.9138C134.967 12.9138 135.42 13.878 135.56 14.1948C134.982 14.1948 134.423 13.4571 134.324 13.346L134.325 13.3469ZM119.845 14.1108C119.687 14.3531 119.419 14.4616 119.153 14.5098C118.849 14.5098 118.631 14.3881 118.435 14.1458C118.376 13.9891 118.339 13.7826 118.413 13.612C118.462 13.5025 118.542 13.4098 118.643 13.3453C118.744 13.2807 118.862 13.2472 118.982 13.2489C119.117 13.2611 119.274 13.3101 119.311 13.4545C119.34 13.502 119.355 13.5565 119.355 13.612C119.355 13.6676 119.34 13.722 119.311 13.7695C119.225 13.9533 119.006 13.9891 118.826 14.0145L118.861 14.074C118.948 14.1074 119.043 14.1159 119.135 14.0986C119.227 14.0813 119.313 14.0389 119.382 13.976C119.453 13.9138 119.505 13.8342 119.535 13.7451C119.565 13.656 119.571 13.5606 119.553 13.4685C119.457 13.1885 119.211 12.9348 118.897 12.9094C117.307 12.9584 118.14 14.8344 117.66 15.7453C117.457 16.1338 117.211 16.6535 116.509 16.503C117.587 16.0436 117.401 14.3155 117.401 13.7188C117.401 12.8989 117.889 12.569 118.351 12.4369C118.861 12.2916 119.348 12.4868 119.676 12.8359C119.929 13.1771 120.063 13.7109 119.845 14.1108ZM118.996 10.2153C118.902 10.0954 118.709 9.97552 118.742 9.78477C119.886 10.322 121.401 10.1785 122.556 9.77164C123.19 9.61677 123.987 9.73664 124.288 10.3579C124.313 10.5259 124.326 10.6676 124.276 10.8243C124.173 10.847 124.173 10.728 124.151 10.6668C123.688 10.0718 122.879 10.2861 122.242 10.4165C122.001 10.5609 121.665 10.5014 121.41 10.609C120.604 10.8593 119.608 10.7516 118.996 10.2153ZM123.999 11.0868C123.583 11.54 122.819 11.2898 122.345 11.1095C122.152 11.015 121.921 10.9791 121.748 10.847C121.758 10.6676 121.954 10.6921 122.069 10.644C122.379 10.5234 122.706 10.4508 123.039 10.4288C123.341 10.4165 123.63 10.441 123.861 10.609C123.977 10.7175 124.045 10.9083 123.999 11.0868ZM121.271 10.9196C122.231 11.0745 123.085 11.6599 124.151 11.3851C124.461 11.253 124.673 10.9914 124.823 10.6808C124.903 10.2258 124.819 9.76027 124.486 9.49777C123.075 8.30252 121.526 9.91602 120.012 9.35602C119.433 9.07164 119.614 8.76277 119.596 8.47664C119.691 8.72339 119.804 8.76277 119.911 8.80477C121.526 9.34289 123.168 7.77839 124.659 8.96052L124.852 9.12502C125.186 9.54502 125.413 9.83027 125.28 10.644C125.119 11.2661 124.848 11.6984 124.012 11.9346C122.496 12.1621 121.308 10.6869 119.614 11.946L119.22 11.5076C119.727 11.1139 120.545 10.7516 121.271 10.9196ZM117.513 10.8339C118.065 11.0115 119.435 12.4999 119.435 12.4999C119.272 12.3944 119.089 12.325 118.897 12.2963C118.705 12.2676 118.509 12.2804 118.322 12.3336C117.649 12.527 117.293 13.0048 117.293 13.7188C117.293 13.7861 117.295 13.8675 117.298 13.962C117.318 14.6821 117.356 16.0244 116.468 16.4015L116.448 16.4103C116.527 15.966 116.566 15.5157 116.566 15.0645V14.2656C116.566 13.1045 116.326 12.0764 115.858 11.19C115.956 10.8855 116.608 10.5793 117.513 10.8339ZM116.082 9.48639C116.359 9.81627 116.492 10.4209 116.11 10.7928C115.98 10.8553 115.87 10.9529 115.793 11.0745C115.374 10.3378 114.796 9.70402 114.101 9.21952C114.203 9.22515 114.305 9.20815 114.4 9.16972C114.495 9.1313 114.58 9.07241 114.649 8.99727L114.656 8.99027L114.66 8.98327C114.841 8.72077 114.885 8.42064 114.784 8.11352C114.742 8.00105 114.68 7.89743 114.6 7.80814L116.082 9.48727V9.48639ZM113.521 7.76264C114.015 7.45289 114.517 7.71014 114.685 8.15114C114.729 8.27944 114.741 8.41627 114.721 8.55031C114.701 8.68435 114.65 8.81176 114.571 8.92202C114.498 9.00394 114.403 9.06302 114.297 9.09219C114.191 9.12136 114.079 9.11939 113.974 9.08652C113.696 8.97539 113.873 8.99902 114.023 8.94914C114.427 8.79689 114.546 8.04089 113.944 8.04089L113.887 8.03564C113.773 8.05052 113.632 8.10827 113.626 8.21064C113.626 8.21064 113.603 8.31564 113.687 8.25877C113.737 8.18002 113.939 8.09164 114.078 8.21152C114.215 8.35852 114.159 8.72427 113.766 8.76452C113.246 8.80652 113.128 8.05752 113.521 7.76352V7.76264ZM103.629 7.76264C104.023 8.05752 103.907 8.80652 103.384 8.76452C102.992 8.72427 102.936 8.35852 103.076 8.21152C103.214 8.09164 103.417 8.18002 103.467 8.25877C103.55 8.31477 103.528 8.20977 103.528 8.20977C103.519 8.10827 103.379 8.05052 103.265 8.03564L103.209 8.04089C102.606 8.04089 102.728 8.79689 103.128 8.94914C103.279 8.99989 103.455 8.97539 103.18 9.08652C103.075 9.11984 102.963 9.12203 102.856 9.09283C102.75 9.06364 102.655 9.0043 102.582 8.92202C102.502 8.81243 102.45 8.68513 102.43 8.55102C102.411 8.41691 102.424 8.27999 102.468 8.15202C102.635 7.71014 103.139 7.45289 103.629 7.76352V7.76264ZM101.07 9.48639L102.553 7.80814C102.473 7.89734 102.41 8.00095 102.368 8.11352C102.318 8.25788 102.303 8.41205 102.324 8.56329C102.346 8.71452 102.403 8.85848 102.491 8.98327L102.497 8.99027L102.502 8.99727C102.656 9.15652 102.852 9.23352 103.05 9.22039C102.356 9.70486 101.779 10.3387 101.361 11.0754C101.283 10.953 101.172 10.855 101.041 10.7928C100.66 10.4209 100.796 9.81627 101.07 9.48727V9.48639ZM99.6394 10.8339C100.544 10.5793 101.198 10.8855 101.297 11.19C100.824 12.0764 100.587 13.1045 100.587 14.2656V15.0645C100.587 15.5283 100.628 15.9771 100.703 16.4103L100.686 16.4015C99.7934 16.0253 99.8345 14.6821 99.8538 13.962C99.8564 13.8684 99.859 13.787 99.859 13.7188C99.859 13.0048 99.502 12.527 98.8292 12.3336C98.6426 12.2805 98.4469 12.2679 98.2551 12.2966C98.0633 12.3253 97.8799 12.3946 97.717 12.4999C97.717 12.4999 99.089 11.0124 99.6394 10.8339ZM98.3794 9.25014C98.3584 9.55377 98.2455 9.78127 98.0399 9.94052C97.6829 10.2179 97.0652 10.2809 96.1499 10.1348C95.7894 10.0779 95.4552 9.98602 95.1349 9.89677C94.2319 9.64914 93.5205 9.45139 92.8258 10.1636C92.8092 10.0586 92.7908 9.78914 92.873 9.69639C93.545 8.89139 94.1925 9.13464 95.064 9.41639C95.3773 9.51527 95.7028 9.61939 96.0502 9.68589C96.9339 9.84952 97.5342 9.77864 97.8807 9.46802C98.0793 9.28427 98.1878 9.02789 98.2088 8.68664C98.3208 8.84064 98.3978 8.97277 98.3785 9.25014H98.3794ZM95.8857 10.6869C95.848 10.8531 95.6354 10.889 95.4937 10.9616C94.8444 11.2854 94.0657 11.7745 93.2869 11.3799C93.0865 11.2723 93.1102 11.0448 93.0507 10.8663C93.076 10.6143 93.2642 10.4839 93.4768 10.3885C94.3142 10.1496 95.1052 10.5311 95.8857 10.686V10.6869ZM97.3653 11.2845C96.5673 11.1795 96.1709 11.3466 95.5715 11.6328C95.2207 11.8016 94.8225 12.0125 94.2879 12.1621L94.2853 12.1648L94.2783 12.1665C93.5923 12.345 92.8573 12.0423 92.4102 11.3983C91.9604 10.7516 91.9289 9.94839 92.3262 9.35514L92.3428 9.33152L92.3577 9.31139C93.2965 8.19139 94.3378 8.52389 95.2539 8.81702C95.547 8.91327 95.8507 9.01039 96.1613 9.07077C97.0809 9.24052 97.3802 9.07602 97.4668 8.99814C97.6295 8.80127 97.9568 8.54664 97.8833 8.03739C97.8833 8.03739 98.0495 8.20714 98.0784 8.41364C98.1292 9.17664 97.8544 9.88889 96.0738 9.55814C94.7455 9.30877 93.713 8.46352 92.7339 9.63252C92.1162 10.553 93.0787 11.9653 94.1575 11.6844C95.547 11.2906 95.9679 10.595 97.4388 10.7919C97.7667 10.8552 98.0818 10.9723 98.3715 11.1384L98.0084 11.5199C97.8108 11.4013 97.5926 11.3211 97.3653 11.2836V11.2845ZM97.4782 12.8359C97.8063 12.4859 98.2919 12.2916 98.802 12.4369C99.2649 12.569 99.7532 12.8989 99.7532 13.7188C99.7532 14.3164 99.5641 16.0436 100.643 16.503C99.943 16.6535 99.6972 16.1338 99.4942 15.7453C99.0129 14.8353 99.8442 12.9584 98.2543 12.9103C97.9393 12.9339 97.6943 13.1885 97.6007 13.4676C97.5822 13.5597 97.5882 13.655 97.618 13.744C97.6477 13.833 97.7003 13.9127 97.7704 13.9751C97.9017 14.0976 98.1099 14.1458 98.2919 14.074L98.3269 14.0136C98.1458 13.9891 97.927 13.9524 97.8422 13.7704C97.8125 13.7231 97.7968 13.6683 97.7968 13.6125C97.7968 13.5566 97.8125 13.5019 97.8422 13.4545C97.8807 13.3101 98.0355 13.2611 98.1712 13.2489C98.291 13.2475 98.4086 13.2812 98.5097 13.3456C98.6107 13.4101 98.6907 13.5027 98.7399 13.612C98.8117 13.7826 98.7749 13.9891 98.7154 14.1458C98.522 14.3881 98.3015 14.5098 98.0014 14.5098C97.7319 14.4616 97.4659 14.3523 97.3093 14.1108C97.0905 13.71 97.2227 13.1763 97.4782 12.8359ZM91.2044 14.4809C91.1012 14.0941 91.1904 13.3495 91.263 13.0564C92.7418 13.8701 95.2329 14.4686 96.5428 14.2726L96.8202 14.2333C96.8368 14.2709 96.8587 14.3103 96.8779 14.3505L96.8875 14.3663L96.8972 14.3829C97.1098 14.7084 97.4502 14.9149 97.913 14.9998L97.9559 15.0068H98.0014C98.3147 15.0068 98.585 14.9166 98.8222 14.7329C98.8292 15.068 98.851 15.4066 98.9499 15.7155C98.5559 15.6539 98.1585 15.6163 97.7599 15.6026L97.7564 15.6245C98.1685 15.656 98.5789 15.7173 98.9805 15.7978C99.0024 15.8599 99.0295 15.9211 99.0593 15.9798L99.0794 16.0183C99.1319 16.1233 99.2054 16.258 99.2982 16.3945C99.2501 16.4155 99.2028 16.4382 99.1564 16.4628C98.3225 16.2318 97.2393 15.9876 96.1735 15.9553L96.1718 15.9771C97.1745 16.0524 98.1799 16.3149 98.9814 16.5704C98.8056 16.6894 98.6542 16.8409 98.5352 17.0166C97.6742 16.7638 96.4605 16.4628 95.2627 16.4278V16.4496C96.429 16.5371 97.6033 16.8784 98.4485 17.1645C98.3667 17.3184 98.3081 17.4835 98.2744 17.6545C97.5394 17.4471 95.8157 16.9344 94.1427 16.937V16.9589C95.8148 17.0306 97.5193 17.6239 98.2412 17.8645C98.2273 18.005 98.2247 18.1463 98.2333 18.2871C96.7353 17.8846 94.4918 17.4716 92.9054 17.5399C93.3797 16.153 92.9177 15.7199 92.5624 15.3594L91.6577 15.2063C92.7488 15.7024 92.6753 17.1129 92.1827 17.6081L92.1774 17.6151C91.9062 17.665 91.6699 17.7359 91.4844 17.8356L91.4048 17.8794V18.4648C90.8614 18.5085 89.7213 18.603 88.946 18.4954C87.8908 18.3816 88.3055 18.0658 87.7035 17.7989C87.0648 17.5303 87.2897 18.2941 86.6124 18.3326C86.5958 18.3335 86.5809 18.3335 86.566 18.3361C86.4007 18.2959 86.2405 18.2574 86.0822 18.2224C85.7855 17.973 85.9352 17.4043 86.0472 17.2651C85.2544 17.2258 85.4434 18.1786 85.2912 17.9126C84.991 17.6466 85.0024 17.2258 85.2299 17.0368C84.4004 17.2643 84.7014 17.9511 84.5124 17.8356C84.0224 17.6081 84.1624 17.1505 84.3514 16.9204C84.0128 16.9204 83.7512 17.3413 83.6742 17.7228C82.996 17.0735 83.7127 16.3893 84.2385 16.4628C84.2385 16.4628 85.0882 16.6719 85.992 16.328C87.8374 15.7943 88.7955 16.503 89.4343 16.4969C90.3023 16.5354 90.2262 16.5406 90.3023 16.1959C90.3767 15.6639 90.5027 15.7549 90.5027 15.3751L90.8667 15.586C90.8282 15.243 90.8282 14.557 90.8282 14.3295L91.2044 14.4809ZM82.8175 16.2221C82.8263 16.2309 82.8377 16.244 82.8473 16.2519C82.8473 16.2519 82.8298 16.2414 82.8175 16.2221C82.4955 15.9544 82.3275 15.054 82.8473 14.5071C83.3854 13.9419 83.4353 13.8141 83.4353 13.8141C83.6068 14.1466 83.8028 15.2255 82.9453 15.9964C82.7878 16.1119 82.7922 16.1836 82.8175 16.2221ZM82.2838 13.5578C82.5043 13.3023 83.0442 12.583 83.0442 12.583V12.6609C83.0687 12.7615 83.4353 13.2244 82.6758 14.0696C82.2925 14.4975 82.2847 14.7381 82.1858 14.8921C82.0895 15.0461 82.0003 15.0671 81.9408 14.7119C81.8437 14.123 81.9907 14.0198 82.2847 13.5578H82.2838ZM81.3799 14.1475C81.0614 13.7625 81.5759 12.8394 81.8918 12.429C82.212 12.0178 82.4544 11.9163 82.7265 11.4026C82.9199 12.4036 82.4063 12.7886 82.212 13.0704C81.8839 13.5403 81.7947 13.7616 81.3799 14.1466V14.1475ZM83.8632 15.0278C84.2149 15.1293 84.3155 15.586 84.1633 15.9421C83.913 16.0436 83.5613 16.0436 83.4117 15.8914C83.6129 15.586 83.8632 15.2815 83.8632 15.0278ZM85.5913 14.354C84.9718 14.354 84.4503 14.6209 84.4503 14.1825C84.4503 13.745 84.9718 13.3889 85.5913 13.3889C86.209 13.3889 86.7725 13.7441 86.7725 14.1825C86.7725 14.6209 86.209 14.354 85.5913 14.354ZM87.0245 15.0785L87.1768 15.586C86.9755 15.4845 86.6238 15.586 86.6238 15.586C86.5232 15.3323 86.5739 15.1293 86.5739 15.1293L87.0245 15.0785ZM86.006 15.7321C86.006 15.7321 85.6709 15.789 85.5195 15.7391L85.5685 15.1791H85.9229L86.006 15.7321ZM84.6778 15.2281L85.2177 15.1791C85.2684 15.3314 85.117 15.789 85.117 15.789L84.6778 15.8888C84.7408 15.733 84.6778 15.2281 84.6778 15.2281ZM88.778 14.0303C89.128 14.2464 89.5962 14.522 89.8788 14.7408C90.1605 14.9613 89.9549 15.439 89.9663 15.5046C89.9794 15.5703 89.8902 15.6219 89.8263 15.5309C89.7642 15.439 89.38 15.194 88.9837 15.0006C88.0824 14.4713 88.0859 13.6846 88.134 13.409C88.1174 13.4108 88.1078 13.4213 88.1025 13.4475C88.1025 13.4475 88.1918 13.1369 88.141 13.3696C88.1384 13.3836 88.1349 13.3959 88.134 13.409C88.2259 13.4064 88.4937 13.8518 88.778 14.0303ZM88.2968 11.7238C88.3108 11.7938 89.275 12.3748 89.9042 13.066C90.4292 13.6453 90.346 13.8246 90.3049 14.1361C90.3049 14.1361 89.9715 13.9734 89.5017 13.731C88.8192 13.3513 88.4315 12.7668 88.2723 12.3336C88.2723 12.3336 88.2198 11.9399 88.2977 11.7238H88.2968ZM89.219 15.9448C89.345 16.0086 89.1832 15.9745 89.0405 16.0358C88.6818 16.1906 88.2478 15.8406 87.994 15.817C87.7097 15.7295 87.3789 15.2334 87.4804 14.4835C87.686 14.3523 87.7744 15.2203 89.219 15.9448ZM90.1334 12.5139C89.8954 12.2006 89.2987 11.7649 89.0344 11.5453C88.7719 11.3274 88.5357 11.26 88.5243 10.21C88.5978 10.4288 88.9732 10.7166 89.7458 11.2731C90.5193 11.8314 90.6934 12.3363 90.7442 13.0853C90.3574 13.0853 90.3697 12.8263 90.1334 12.5139ZM90.6234 11.2906C90.2305 10.9914 89.7738 10.6878 89.6609 10.5705C89.2479 10.1391 88.6293 10.1514 88.6424 9.44177C88.8673 9.58614 89.2112 9.74189 89.6994 9.91077C90.1842 10.0796 90.479 10.4506 90.6234 11.2906ZM89.0222 8.39002C90.1247 8.68752 90.2078 9.14514 90.1465 9.60014C90.1465 9.60014 89.4133 9.25277 88.8078 9.07339C88.8078 9.07339 89.0458 8.71202 89.0222 8.39002ZM86.6964 10.5206C86.6964 10.3719 86.8145 10.252 86.9615 10.252C87.1059 10.252 87.2249 10.3719 87.2249 10.5206C87.2251 10.5909 87.1976 10.6584 87.1482 10.7084C87.0989 10.7584 87.0318 10.7868 86.9615 10.7875C86.9266 10.7874 86.892 10.7804 86.8598 10.7669C86.8276 10.7535 86.7983 10.7338 86.7737 10.709C86.7491 10.6842 86.7296 10.6548 86.7163 10.6225C86.7031 10.5902 86.6963 10.5556 86.6964 10.5206ZM84.0478 8.54052C84.0259 8.32702 84.1134 8.21502 84.2455 8.14327C84.6988 8.00327 85.138 7.94202 85.5913 7.95077C86.0428 7.94202 86.4803 8.00327 86.9335 8.14327C87.0648 8.21502 87.1532 8.32702 87.1348 8.54052C88.1874 7.39077 88.778 7.31814 88.7597 8.30777C88.7439 9.29914 88.2093 8.79252 88.0999 8.42764C88.0999 8.42764 88.1288 10.3448 88.1174 10.6676C88.1087 10.9931 88.0107 11.6923 87.0832 11.7483C87.4848 11.799 87.7622 11.9268 87.861 12.0536C87.9118 12.1551 87.9372 12.3581 87.7849 12.3844C87.5432 12.3586 87.3007 12.3417 87.0578 12.3336C87.2083 12.4343 87.434 12.471 87.5583 12.5051C87.6406 12.5376 87.7174 12.5828 87.7858 12.639C87.7858 12.639 87.7858 12.8928 87.686 12.9943C87.5863 12.9943 87.1348 12.765 86.9073 12.765C86.9073 12.765 87.2468 12.9164 87.4734 13.2419C87.5863 13.3941 87.6414 13.5936 87.3885 13.5936C87.3885 13.5936 87.1917 13.528 87.0674 13.4011C86.6387 13.0459 85.9439 13.115 85.719 12.989C85.5922 12.9129 85.7759 12.569 85.978 12.569C86.5792 12.569 86.6212 11.9915 86.6273 11.7605C86.6273 11.7605 86.4785 10.9625 87.0805 11.0203C87.6843 11.0798 87.7044 10.539 87.7237 9.92827C87.7237 9.92827 87.616 9.95977 86.9397 9.97202C86.2659 9.98252 86.1347 9.58352 86.1495 9.18627L86.048 12.0326C86.1443 12.1114 85.8652 12.1709 85.5913 12.1691C85.3148 12.1709 85.0365 12.1123 85.1337 12.0326C85.1337 12.0326 85.0418 9.49952 85.0287 9.18627C85.0427 9.58352 84.9149 9.98252 84.2385 9.97202C83.563 9.95977 83.4545 9.92827 83.4545 9.92827C83.4764 10.539 83.4957 11.0798 84.0994 11.0203C84.7014 10.9625 84.5527 11.7605 84.5527 11.7605C84.5614 11.9924 84.5999 12.569 85.2002 12.569C85.404 12.569 85.5869 12.9129 85.4609 12.989C85.2352 13.115 84.5404 13.0459 84.1134 13.4011C83.99 13.528 83.7905 13.5936 83.7905 13.5936C83.5394 13.5936 83.5928 13.3941 83.7074 13.2419C83.9332 12.9164 84.2727 12.765 84.2727 12.765C84.0478 12.765 83.5928 12.9943 83.4939 12.9943C83.3942 12.8936 83.3942 12.639 83.3942 12.639C83.3942 12.639 83.4712 12.569 83.6208 12.5051C83.7433 12.471 83.9717 12.4351 84.1195 12.3336C84.0198 12.3336 83.619 12.3581 83.3933 12.3844C83.2445 12.3581 83.2673 12.1551 83.318 12.0536C83.4169 11.9268 83.6943 11.799 84.0968 11.7483C83.1693 11.6923 83.0739 10.9931 83.0634 10.6676C83.0494 10.3448 83.0809 8.42764 83.0809 8.42764C82.9698 8.79252 82.4387 9.29914 82.4194 8.30777C82.4019 7.31902 82.9917 7.39077 84.0469 8.54052H84.0478ZM84.4897 10.5206C84.4899 10.5555 84.4833 10.59 84.4701 10.6222C84.457 10.6545 84.4377 10.6838 84.4132 10.7086C84.3888 10.7334 84.3597 10.7531 84.3276 10.7667C84.2955 10.7802 84.2611 10.7873 84.2263 10.7875C84.1914 10.7875 84.1568 10.7806 84.1245 10.7672C84.0923 10.7537 84.0631 10.734 84.0385 10.7092C84.0139 10.6844 83.9945 10.6549 83.9814 10.6226C83.9683 10.5902 83.9617 10.5556 83.962 10.5206C83.962 10.3719 84.0793 10.252 84.2263 10.252C84.3715 10.252 84.4897 10.3719 84.4897 10.5206ZM81.7212 9.35077C81.9408 9.19677 82.0152 8.76014 82.0152 8.96577C82.1132 9.14514 82.3582 9.45314 82.3337 9.60714C82.3092 9.76027 81.7212 10.7114 81.3055 10.4016C81.2557 10.1199 81.5007 9.50477 81.7212 9.35164V9.35077ZM80.8899 12.5051C80.8645 11.7876 81.7465 10.8391 82.6049 10.2223C82.8237 10.063 82.5787 11.043 82.0414 11.5566C81.5007 12.0694 81.33 12.4553 80.889 12.5051H80.8899ZM75.5892 18.0351C75.5892 17.8435 75.7607 17.7525 76.031 17.6991C76.4388 17.6116 77.0268 17.4813 77.3173 17.2966L77.4127 17.2336C77.6778 17.0639 77.8204 16.9738 77.9622 16.9738C78.2693 16.9738 79.839 16.8906 79.9064 16.8863C80.4953 16.8539 81.2434 16.5966 81.4727 16.0856L81.5033 16.1381V16.9011C81.652 16.4934 81.9548 16.3411 82.1569 16.2904C82.1569 16.748 82.3057 17.1033 82.3057 17.3054C82.4562 17.0009 82.7082 16.748 82.9602 16.748C82.9217 17.0123 82.912 17.3868 82.9094 17.7508C80.847 17.4471 79.552 17.5583 78.3515 17.8488C78.3184 17.7785 78.267 17.7184 78.2028 17.6746C77.8642 17.9039 77.7872 18.5138 77.9018 18.6284C77.9018 18.6284 77.7522 18.6678 77.6087 18.6678C77.0819 18.5015 77.3785 18.0045 77.4783 17.9065C77.2132 17.9389 77.0172 18.1375 76.9839 18.5339C76.9857 18.6188 76.9734 18.6608 76.9472 18.6783H76.8098C76.7905 18.6756 76.773 18.6695 76.7494 18.6678C76.2218 18.5015 76.5175 18.0045 76.6182 17.9065C76.3539 17.9389 76.1562 18.1375 76.1229 18.5339C76.1229 18.6223 76.0932 18.6651 76.031 18.6783H75.8823C75.8587 18.6756 75.8298 18.673 75.7992 18.6678C75.4973 18.5138 75.5507 18.2259 75.5892 18.036V18.0351ZM78.971 20.6934H71.7435L73.8374 19.8683L71.2894 18.8393H78.9719V20.6934H78.971ZM81.6625 21.0933L79.1207 20.7013C79.8469 20.5245 80.623 20.4038 81.6625 20.4195V21.0933ZM91.7714 21.2595C90.402 21.3321 88.9609 21.2525 87.1015 20.7958C82.6837 19.6758 80.777 19.7799 79.1399 20.185V18.0141C80.7762 17.6064 82.6837 17.5049 87.1015 18.624C88.7658 19.0335 90.1457 19.0773 91.3759 18.9355L91.3637 20.6575L93.4637 20.8745C93.4637 20.8745 92.9142 21.2298 91.7714 21.2595ZM94.5355 20.7888L91.7084 20.5131C92.3235 20.2673 93.4269 20.2524 94.5784 20.3644L94.5347 20.7888H94.5355ZM91.5352 20.0783V17.9695C92.7453 17.3308 96.1245 17.8654 98.2823 18.456C98.4337 19.0186 98.6988 20.0861 99.7365 20.9681C97.9533 20.2804 93.0034 19.2978 91.5352 20.0783ZM98.7364 18.4088C98.5352 16.7559 100.016 16.6036 100.763 16.7016C100.98 17.7011 101.434 18.6339 102.086 19.422C101.89 19.2715 101.595 19.1385 101.174 19.1271C100.734 19.1271 100.369 19.2951 100.151 19.5996C100 19.8141 99.93 20.0751 99.9527 20.3364C99.5134 20.0039 98.8624 19.1201 98.7364 18.4088ZM102.3 19.9094C101.991 19.7484 101.18 19.4526 100.715 19.8271C100.355 20.1325 100.492 20.738 100.97 20.6881C101.093 20.6706 101.246 20.6094 101.254 20.4974C101.254 20.4974 101.277 20.3854 101.188 20.4449C101.133 20.5315 100.915 20.6251 100.764 20.4956C100.615 20.3364 100.677 19.94 101.101 19.898C101.666 19.8534 101.792 20.6636 101.367 20.9848C100.831 21.3199 100.288 21.0408 100.107 20.5613C99.915 19.975 100.26 19.2374 101.174 19.2374C102.136 19.2628 102.389 19.9523 102.3 19.9094ZM108.576 22.0006C104.223 22.0006 100.696 19.4736 100.696 15.0645V14.2656C100.696 9.85739 104.223 7.81252 108.576 7.81252C112.93 7.81252 116.46 9.85739 116.46 14.2656V15.0645C116.46 19.4736 112.93 22.0006 108.576 22.0006ZM117.048 20.5613C116.868 21.0408 116.32 21.3199 115.788 20.9848C115.359 20.6636 115.487 19.8534 116.053 19.898C116.478 19.94 116.54 20.3364 116.387 20.4956C116.241 20.6251 116.02 20.5306 115.966 20.4458C115.874 20.3854 115.897 20.4974 115.897 20.4974C115.907 20.6085 116.059 20.6715 116.184 20.6881C116.659 20.738 116.796 20.1325 116.437 19.8271C115.973 19.4526 115.161 19.7484 114.85 19.9094C114.765 19.9531 115.016 19.2619 115.977 19.2374C116.891 19.2374 117.237 19.9759 117.048 20.5613ZM117.199 20.3364C117.223 20.0753 117.154 19.8141 117.003 19.5996C116.782 19.2951 116.42 19.1271 115.977 19.1271C115.559 19.1385 115.264 19.2715 115.065 19.422C115.718 18.6339 116.172 17.7007 116.39 16.7008C117.136 16.6036 118.616 16.7559 118.415 18.4088C118.291 19.1193 117.64 20.0039 117.199 20.3364ZM117.414 20.9681C118.454 20.0861 118.719 19.0186 118.871 18.4569C120.696 17.9555 124.469 17.4961 126.323 17.7543L126.299 17.7604C126.336 17.9896 126.375 18.6371 126.411 18.9031L125.771 19.0956L126.001 19.8236C123.608 19.6224 118.899 20.3968 117.414 20.9681ZM124.076 20.3854C125.229 20.2743 126.331 20.2891 126.949 20.535L124.118 20.8106L124.076 20.3854ZM125.319 20.8491L126.975 20.6575L127.354 20.9261C126.863 21.2298 125.585 21.0399 125.32 20.8483L125.319 20.8491ZM127.879 20.3906C127.765 20.542 127.616 20.5814 127.428 20.3145C127.354 20.164 126.9 19.59 126.601 19.4378C127.24 19.2855 127.826 18.9644 128.69 19.8788C128.465 19.9549 127.993 20.164 127.879 20.3906ZM133.225 17.7114C133.911 17.6598 134.708 17.3789 135.47 16.9641C135.82 16.7716 136.784 16.8618 137.103 17.0271L137.061 16.9921L137.127 17.0359L137.103 17.0271L137.131 17.049C137.24 17.1365 137.479 17.3273 137.67 17.4909C136.879 17.4541 133.453 17.875 132.549 18.0273C132.549 18.0273 133 17.7446 133.225 17.7123L133.225 17.7114ZM133.536 19.3765L133.535 19.3818C133.345 19.2501 133.151 19.1249 132.952 19.0064L132.944 18.7561C132.94 18.6581 132.945 18.6459 133.048 18.631C133.191 18.6065 133.296 18.5855 133.421 18.6713C133.617 18.8034 133.632 19.1464 133.536 19.3765ZM134.14 19.9593L134.129 19.8954C134.032 19.7714 133.918 19.661 133.791 19.5673C133.797 19.562 133.806 19.5568 133.815 19.5506C134.13 19.3223 134.2 18.9294 134.054 18.715C133.874 18.4429 133.513 18.4131 133.127 18.4726L132.289 18.6039C132.163 18.5302 132.044 18.4443 131.935 18.3475C134.547 17.784 139.791 17.3141 141.131 17.9293V19.8831C140.099 19.408 136.921 19.5891 134.14 19.9593ZM136.683 21.0775V20.0835C138.239 19.9636 139.679 19.9461 140.567 20.1115C140.347 20.3976 139.807 20.7529 136.683 21.0775ZM146.238 20.6925H140.658C141.158 20.6199 141.286 20.5193 141.329 20.3145V18.8393H146.691L144.142 19.8683L146.238 20.6934L146.238 20.6925Z" fill="#484848"/>
</svg>
