<svg width="157" height="161" viewBox="0 0 157 161" fill="none" xmlns="http://www.w3.org/2000/svg">
<circle cx="1.65241" cy="1.65241" r="1.65241" fill="#9AC1D0"/>
<circle cx="32.2227" cy="1.65241" r="1.65241" fill="#9AC1D0"/>
<circle cx="62.793" cy="1.65241" r="1.65241" fill="#9AC1D0"/>
<circle cx="93.3594" cy="1.65241" r="1.65241" fill="#9AC1D0"/>
<circle cx="123.93" cy="1.65241" r="1.65241" fill="#9AC1D0"/>
<circle cx="154.5" cy="1.65241" r="1.65241" fill="#9AC1D0"/>
<circle cx="1.65241" cy="1.65241" r="1.65241" fill="#9AC1D0"/>
<circle cx="32.2227" cy="1.65241" r="1.65241" fill="#9AC1D0"/>
<circle cx="62.793" cy="1.65241" r="1.65241" fill="#9AC1D0"/>
<circle cx="93.3594" cy="1.65241" r="1.65241" fill="#9AC1D0"/>
<circle cx="123.93" cy="1.65241" r="1.65241" fill="#9AC1D0"/>
<circle cx="154.5" cy="1.65241" r="1.65241" fill="#9AC1D0"/>
<circle cx="1.65241" cy="33.0489" r="1.65241" fill="#9AC1D0"/>
<circle cx="32.2227" cy="33.0489" r="1.65241" fill="#9AC1D0"/>
<circle cx="62.793" cy="33.0489" r="1.65241" fill="#9AC1D0"/>
<circle cx="93.3594" cy="33.0489" r="1.65241" fill="#9AC1D0"/>
<circle cx="123.93" cy="33.0489" r="1.65241" fill="#9AC1D0"/>
<circle cx="154.5" cy="33.0489" r="1.65241" fill="#9AC1D0"/>
<circle cx="1.65241" cy="64.4434" r="1.65241" fill="#9AC1D0"/>
<circle cx="32.2227" cy="64.4434" r="1.65241" fill="#9AC1D0"/>
<circle cx="62.793" cy="64.4434" r="1.65241" fill="#9AC1D0"/>
<circle cx="93.3594" cy="64.4434" r="1.65241" fill="#9AC1D0"/>
<circle cx="123.93" cy="64.4434" r="1.65241" fill="#9AC1D0"/>
<circle cx="154.5" cy="64.4434" r="1.65241" fill="#9AC1D0"/>
<circle cx="1.65241" cy="95.8399" r="1.65241" fill="#9AC1D0"/>
<circle cx="32.2227" cy="95.8399" r="1.65241" fill="#9AC1D0"/>
<circle cx="62.793" cy="95.8399" r="1.65241" fill="#9AC1D0"/>
<circle cx="93.3594" cy="95.8399" r="1.65241" fill="#9AC1D0"/>
<circle cx="123.93" cy="95.8399" r="1.65241" fill="#9AC1D0"/>
<circle cx="154.5" cy="95.8399" r="1.65241" fill="#9AC1D0"/>
<circle cx="1.65241" cy="127.234" r="1.65241" fill="#9AC1D0"/>
<circle cx="32.2227" cy="127.234" r="1.65241" fill="#9AC1D0"/>
<circle cx="62.793" cy="127.234" r="1.65241" fill="#9AC1D0"/>
<circle cx="93.3594" cy="127.234" r="1.65241" fill="#9AC1D0"/>
<circle cx="123.93" cy="127.234" r="1.65241" fill="#9AC1D0"/>
<circle cx="154.5" cy="127.234" r="1.65241" fill="#9AC1D0"/>
<circle cx="1.65241" cy="158.631" r="1.65241" fill="#9AC1D0"/>
<circle cx="32.2227" cy="158.631" r="1.65241" fill="#9AC1D0"/>
<circle cx="62.793" cy="158.631" r="1.65241" fill="#9AC1D0"/>
<circle cx="93.3594" cy="158.631" r="1.65241" fill="#9AC1D0"/>
<circle cx="123.93" cy="158.631" r="1.65241" fill="#9AC1D0"/>
<circle cx="154.5" cy="158.631" r="1.65241" fill="#9AC1D0"/>
</svg>
