<svg width="15" height="13" viewBox="0 0 15 13" fill="none" xmlns="http://www.w3.org/2000/svg">
<path opacity="0.7" d="M14.2857 1.85325C13.75 2.12312 13.2143 2.21308 12.5893 2.30303C13.2143 1.94321 13.6607 1.40347 13.8393 0.683819C13.3036 1.04364 12.6786 1.22356 11.9643 1.40347C11.4286 0.863732 10.625 0.503906 9.82143 0.503906C8.30357 0.503906 6.96429 1.85325 6.96429 3.47247C6.96429 3.74233 6.96429 3.92225 7.05357 4.10216C4.64286 4.0122 2.41071 2.84277 0.982143 1.04364C0.714286 1.49343 0.625 1.94321 0.625 2.5729C0.625 3.56242 1.16071 4.46198 1.96429 5.00172C1.51786 5.00172 1.07143 4.82181 0.625 4.6419C0.625 6.0812 1.60714 7.25063 2.94643 7.5205C2.67857 7.61046 2.41071 7.61046 2.14286 7.61046C1.96429 7.61046 1.78571 7.61046 1.60714 7.5205C1.96429 8.68993 3.03571 9.5895 4.375 9.5895C3.39286 10.3991 2.14286 10.8489 0.714286 10.8489C0.446429 10.8489 0.267857 10.8489 0 10.8489C1.33929 11.6585 2.85714 12.1982 4.46429 12.1982C9.82143 12.1982 12.7679 7.70041 12.7679 3.83229C12.7679 3.74233 12.7679 3.56242 12.7679 3.47247C13.3929 3.02268 13.9286 2.48295 14.2857 1.85325Z" fill="#ffffff"/>
</svg>
